<svg width="90" height="411" viewBox="0 0 90 411" fill="none" xmlns="http://www.w3.org/2000/svg">
<path fill-rule="evenodd" clip-rule="evenodd" d="M89.7751 104.693C89.1835 97.0449 87.889 94.0129 83.0584 88.9647C79.2961 85.0316 78.6182 84.5794 75.208 83.72L71.4754 82.7796L68.0932 84.4729C64.5273 86.258 63.8523 87.2861 65.8923 87.8243C66.7147 88.0413 67.6345 87.666 68.6608 86.6956C69.7292 85.6851 70.5534 85.3628 71.3635 85.6381C72.0046 85.8557 73.6518 86.1039 75.0244 86.1892C77.0364 86.3139 78.0517 86.8332 80.27 88.8724C84.1833 92.4696 85.0605 93.5518 85.0605 94.7846C85.0605 96.148 84.5377 96.168 83.5404 94.8417C82.8771 93.9594 82.8474 94.1059 83.3306 95.8668C83.6412 96.9973 83.8948 97.9813 83.8948 98.0542C83.8948 98.1272 84.2445 98.0513 84.6717 97.886C85.2225 97.6725 85.912 99.1441 87.0451 102.956C88.4888 107.81 88.6945 111.059 87.4694 109.644C86.8405 108.918 85.2161 104.362 84.5511 101.459C84.0417 99.2353 84.0084 99.3323 83.9443 103.223C83.907 105.487 83.6226 107.737 83.3119 108.222C82.8427 108.955 82.7413 108.905 82.7151 107.928C82.6405 105.193 82.1666 100.115 81.7825 97.9295C81.4031 95.7733 81.3332 95.6998 80.9415 97.0473C80.706 97.856 80.4839 99.7087 80.4478 101.164C80.3009 107.061 78.6963 108.169 78.5821 102.453C78.5157 99.1359 78.511 99.127 78.0389 101.459C77.5773 103.741 77.9293 109.987 78.5192 109.987C79.1055 109.987 80.3609 107.902 80.379 106.899C80.3895 106.333 80.639 105.87 80.9345 105.87C81.6345 105.87 82.229 108.731 81.8874 110.455C81.5418 112.199 82.0559 113.516 83.0829 113.516C83.8983 113.516 83.9496 113.363 84.1028 110.477C84.1489 109.614 84.3972 108.695 84.6548 108.435C85.5256 107.557 86.2081 109.673 86.2174 113.278C86.2244 116.144 86.4669 117.083 87.4274 117.959C88.4556 118.899 88.7062 118.933 89.1672 118.198C89.4633 117.725 89.7093 116.78 89.7145 116.098C89.7192 115.415 89.8218 113.695 89.9424 112.275C90.0631 110.854 89.9879 107.443 89.7751 104.693ZM88.0819 272.174C87.9712 271.204 87.544 270.556 87.0153 270.556C86.3445 270.556 86.2227 270.146 86.5065 268.843C86.8067 267.464 86.6551 267.057 85.7325 266.762C85.1013 266.559 84.4543 266.05 84.2946 265.63C84.0813 265.069 82.0879 264.835 76.8096 264.75C69.8108 264.638 69.5806 264.593 68.3502 263.087C65.9558 260.156 65.5473 258.947 66.4052 257.331C67.0265 256.159 67.5965 255.884 69.2722 255.948C72.3444 256.067 74.0196 255.386 76.4582 253.027C79.2378 250.339 79.742 247.936 78.1665 244.887C77.5219 243.639 76.6331 241.295 76.1901 239.677C75.3432 236.58 73.8441 235.676 73.5084 238.06C73.2997 239.543 72.8043 239.72 71.7715 238.677C70.8897 237.788 70.9246 237.621 70.8261 243.206C70.7463 247.751 70.6944 247.917 69.3049 248.06C63.8995 248.618 59.1534 249.715 57.9248 250.69L56.5009 251.82L56.5009 249.425C56.5009 248.108 56.2386 247.029 55.918 247.029C54.9621 247.029 55.2571 252.698 56.3377 255.097C57.6875 258.093 57.6491 258.064 58.5886 256.768C59.6634 255.284 59.6418 254.087 58.5408 254.087C57.0266 254.087 57.5855 252.981 59.8522 251.491C61.4452 250.444 63.2205 249.949 66.3959 249.667C71.9749 249.172 72.8696 248.707 72.32 246.59C71.715 244.258 72.1294 242.319 73.1482 242.713C73.6139 242.894 73.9863 242.696 73.9863 242.269C73.9863 241.742 74.1752 241.691 74.5861 242.106C74.9976 242.521 74.9084 243.252 74.3022 244.429C73.3831 246.215 74.0534 247.197 75.3199 245.919C75.676 245.56 76.1475 245.265 76.3661 245.265C77.1605 245.265 77.4065 247.838 76.7275 249.036C76.0654 250.205 75.9581 250.561 75.8019 252.107C75.7652 252.474 75.2301 252.907 74.6129 253.07C73.8255 253.278 73.583 253.123 73.801 252.551C74.0236 251.964 73.6075 251.735 72.3182 251.735C70.9643 251.735 70.6081 251.951 70.8611 252.617C71.1811 253.458 70.2491 253.797 68.31 253.545C67.913 253.493 66.995 253.78 66.27 254.183C65.5455 254.586 64.5914 254.927 64.1508 254.943C63.7101 254.957 62.9279 255.61 62.4127 256.391C61.4831 257.801 61.4895 257.809 63.1401 257.391L64.8053 256.969L64.4072 260.675C64.1881 262.713 63.9328 265.25 63.8389 266.314C63.604 268.979 62.348 271.144 61.036 271.144C60.4333 271.144 59.1662 271.548 58.2203 272.042C56.3598 273.012 56.175 272.858 57.1041 271.105C57.4363 270.48 57.4917 269.968 57.2282 269.968C56.9642 269.968 56.7066 268.906 56.6553 267.609C56.604 266.312 56.4216 265.02 56.2491 264.74C56.0771 264.459 54.7517 264.363 53.3045 264.528C51.1899 264.769 50.6724 264.649 50.6724 263.917C50.6724 263.418 50.9999 262.852 51.4009 262.661C51.8013 262.471 51.4079 262.453 50.5267 262.623C48.5863 262.998 48.4441 262.14 50.2352 260.871C51.5169 259.963 51.5018 259.951 49.562 260.341C48.13 260.63 47.6928 260.551 47.9936 260.061C48.6132 259.049 46.8617 259.227 46.0096 260.263C45.1604 261.296 44.261 261.42 44.261 260.504C44.261 259.654 46.4572 257.756 48.6324 256.726L50.3809 255.898L48.7781 255.875C46.9584 255.849 46.6822 255.024 48.1953 254.134C49.0404 253.638 48.89 253.532 47.321 253.517C45.1184 253.496 44.8649 252.776 46.7381 251.864C47.9755 251.262 47.9831 251.224 46.8681 251.187C45.3597 251.135 43.0953 252.721 43.0953 253.827C43.0953 254.294 42.5708 254.676 41.9296 254.676C40.3204 254.676 40.4148 252.686 42.0753 251.601C42.7969 251.13 44.1736 250.528 45.1353 250.263C46.3838 249.92 46.5924 249.713 45.8639 249.539C44.3251 249.172 44.6393 248.274 46.4467 247.872C47.328 247.675 48.7052 247.294 49.5067 247.024C50.9405 246.542 50.9358 246.534 49.2152 246.491C47.4119 246.447 44.683 247.624 43.1151 249.122C37.2348 254.74 36.8845 255.466 39.0154 257.616C39.6565 258.263 40.1811 259.141 40.1811 259.566C40.1811 259.991 41.0991 260.781 42.2211 261.321C43.5004 261.936 44.261 262.721 44.261 263.426C44.261 265.281 42.7549 265.294 41.4039 263.45C40.1444 261.731 37.7162 261.112 36.9754 262.322C36.7772 262.645 36.9457 262.91 37.349 262.91C37.9196 262.91 37.9272 263.067 37.3834 263.616C36.6123 264.394 36.4258 266.439 37.1264 266.439C37.37 266.439 37.8847 265.93 38.2699 265.307C38.8534 264.364 39.1967 264.283 40.3303 264.823C41.3899 265.328 41.7105 265.987 41.7827 267.812C41.897 270.703 40.135 274.764 38.327 275.776C36.6782 276.699 31.8067 282.562 31.5293 283.957C31.4191 284.512 32.9368 283.312 34.9016 281.29C40.5331 275.495 40.6147 276.459 35.1458 284.173C33.0965 287.062 32.0294 290.323 32.0247 293.704C32.0218 295.409 32.224 295.894 32.8378 295.657C33.3239 295.468 33.7744 295.801 33.9493 296.476C34.1113 297.101 34.7128 297.612 35.2863 297.612C35.8598 297.612 37.0599 298.319 37.9534 299.183C39.4519 300.631 39.6583 300.681 40.6083 299.82C41.1748 299.307 42.727 298.449 44.0582 297.915C46.8226 296.804 46.8984 296.581 47.5349 287.742C47.7511 284.739 48.1813 282.125 48.4913 281.932C49.861 281.077 50.1484 283.667 49.8395 294.083C49.435 307.739 49.1255 310.964 47.7097 316.31C47.0849 318.669 46.4426 321.977 46.2818 323.662C46.1215 325.347 45.8306 327.652 45.6354 328.784C45.4407 329.917 45.2 332.696 45.1009 334.96C45.0018 337.225 44.2348 341.989 43.3961 345.547C42.5579 349.106 41.7728 352.811 41.651 353.781C41.5298 354.752 41.116 358.06 40.7319 361.134C40.0039 366.957 39.8518 370.207 40.1677 373.191C40.2708 374.161 39.8961 380.291 39.3354 386.812C38.5975 395.39 38.4879 398.969 38.939 399.752C39.2911 400.363 39.5702 400.505 39.5807 400.078C39.5994 399.275 46.5324 388.817 48.5385 386.564C50.3903 384.485 50.9492 385.736 50.2381 390.368C49.5341 394.954 49.5614 410.199 50.2748 410.922C50.5377 411.187 51.2366 410.756 51.8287 409.964C52.8015 408.662 53.0434 408.598 54.335 409.295C56.2817 410.346 58.0087 409.925 57.7703 408.458C56.973 403.546 56.5556 398.471 56.3586 391.277C56.1488 383.607 56.5154 381.241 57.4964 383.925C57.7039 384.491 58.0233 385.087 58.2069 385.248C58.9896 385.938 62.3293 390.509 62.3293 390.891C62.3293 391.789 66.1633 396.388 66.9263 396.405C67.5715 396.42 67.6595 395.652 67.3634 392.6C67.1594 390.498 66.8418 386.99 66.6582 384.807C66.4746 382.624 66.0951 380.308 65.8142 379.661C65.5333 379.014 65.2039 374.911 65.0821 370.544C64.9347 365.261 64.5908 362.112 64.0546 361.134C63.5382 360.192 63.2852 358.099 63.3511 355.319C63.4216 352.365 63.0993 349.912 62.3433 347.647C61.4486 344.968 61.3257 343.634 61.7115 340.815C61.9925 338.769 61.9674 336.881 61.6526 336.275C61.3187 335.632 61.3315 334.44 61.6876 333.14C62.0799 331.705 62.0618 330.6 61.6311 329.645C61.1636 328.611 61.1928 327.782 61.7418 326.444C62.383 324.881 62.3468 324.486 61.4726 323.51C60.9165 322.89 60.2387 320.846 59.9659 318.967C59.1598 313.416 58.4493 310.452 57.1018 307.022C55.9466 304.083 55.8282 302.697 55.8026 291.851C55.7869 285.287 55.9133 279.776 56.0835 279.604C56.4216 279.262 62.0263 281.868 63.6122 283.105C64.1577 283.53 64.6089 284.387 64.6147 285.01C64.6363 287.228 65.3823 289.938 66.1488 290.58C66.7491 291.082 66.7794 291.558 66.2822 292.659C65.5513 294.278 66.0771 295.241 67.1186 294.19C68.5967 292.699 68.7092 293.604 67.3046 295.69C66.4915 296.897 65.8264 298.088 65.8264 298.336C65.8264 299.177 67.41 298.794 68.9336 297.585C70.1354 296.631 70.3808 296.037 70.1191 294.716C69.9379 293.8 70.1022 292.46 70.4846 291.739C70.9876 290.79 71.0039 290.25 70.5434 289.785C70.1931 289.431 69.9064 288.747 69.9064 288.265C69.9064 287.604 70.1063 287.663 70.7177 288.507C71.4066 289.459 71.6695 289.509 72.4663 288.842C72.9815 288.41 73.4035 287.681 73.4035 287.222C73.4035 286.763 74.2125 284.641 75.201 282.507C76.5264 279.647 76.8131 278.511 76.2921 278.186C75.3776 277.616 76.1126 276.395 77.1331 276.791C78.4375 277.295 78.7768 282.745 77.6181 284.579C76.7321 285.98 76.7286 286.064 77.5854 285.38C79.0233 284.234 80.7147 280.367 79.8982 280.093C79.109 279.827 78.9912 277.614 79.7664 277.614C80.0602 277.614 80.4023 277.922 80.5265 278.299C80.8097 279.156 83.309 274.963 83.3207 273.61C83.3341 272.146 84.2515 270.934 84.9952 271.398C85.3519 271.62 85.6416 272.779 85.6398 273.973C85.6363 275.767 85.3332 276.318 83.8913 277.145C82.8713 277.731 82.1462 278.633 82.1462 279.316C82.1462 279.96 81.8839 280.649 81.5634 280.849C81.2428 281.049 80.9805 281.664 80.9805 282.216C80.9805 282.768 80.456 284.207 79.8148 285.414C79.1737 286.621 78.6491 288.006 78.6491 288.493C78.6491 288.979 78.307 289.377 77.8891 289.377C76.9536 289.377 73.4035 292.996 73.4035 293.949C73.4035 295.061 71.4463 298.002 68.8328 300.815C67.4998 302.25 66.4093 303.974 66.4093 304.647L66.4093 305.87L68.595 304.731C69.7968 304.104 72.2191 302.343 73.9776 300.818C75.736 299.293 77.8279 297.617 78.627 297.094C81.1595 295.433 83.2257 292.713 84.4904 289.377C85.1648 287.598 86.3579 284.908 87.1418 283.4C88.5389 280.713 88.7575 278.1 88.0819 272.174ZM84.4607 184.822C83.5083 183.765 82.7291 182.399 82.7291 181.786C82.7291 181.173 81.9218 179.986 80.9356 179.149C79.3328 177.788 78.6375 177.624 74.3786 177.605C71.3524 177.592 69.0834 177.278 68.1578 176.744C67.3564 176.281 65.7169 175.894 64.515 175.882C62.3457 175.861 61.5571 174.947 63.1704 174.323C63.7667 174.092 63.8733 173.627 63.5364 172.724C62.7111 170.512 64.448 167.617 65.535 169.392C66.481 170.936 72.6545 169.086 74.1233 166.818C75.2336 165.103 74.1245 159.819 71.4521 154.099L70.2159 151.453L69.9157 154.982L69.615 158.511L68.5163 156.875C67.2206 154.946 66.7817 155.106 67.329 157.308C67.5523 158.205 68.3216 159.12 69.1061 159.421C70.6268 160.005 71.008 161.745 69.615 161.745C69.1341 161.745 68.7395 161.282 68.7384 160.716C68.7372 160.016 68.3817 160.274 67.628 161.521C67.019 162.529 65.9051 163.499 65.1533 163.676C63.5924 164.044 57.7295 163.77 57.272 163.308C56.9555 162.989 56.7177 155.287 56.2421 129.985C56.087 121.736 55.8079 111.281 55.6219 106.752C55.4354 102.223 55.4914 98.2477 55.7461 97.9178C56.0008 97.5872 56.931 96.9979 57.8123 96.6067C59.1557 96.0109 59.4151 96.0368 59.4151 96.7655C59.4151 97.2443 59.7129 97.6354 60.0766 97.6354C60.4409 97.6354 61.3723 98.326 62.1469 99.1694C63.4956 100.638 63.6035 100.659 64.6782 99.6781C65.7524 98.6971 65.8888 98.72 67.818 100.205C70.0865 101.951 70.3756 101.781 70.3738 98.7036C70.3721 95.9268 70.776 95.3145 72.3369 95.7269C73.358 95.9962 73.5253 95.8639 73.2106 95.0352C72.9961 94.4717 72.8206 93.6347 72.8206 93.176C72.8206 92.7172 72.5584 92.342 72.2378 92.342C71.9172 92.342 71.6491 92.8048 71.6421 93.3712C71.6316 94.2053 71.4131 94.1212 70.4927 92.9301L69.3568 91.4597L69.4856 94.6317C69.5689 96.6697 69.3655 97.8925 68.9167 98.0525C68.4388 98.223 68.1631 97.2367 68.0424 94.9269C67.9288 92.7478 67.5884 91.4603 67.0813 91.2909C66.4507 91.0809 66.4291 91.2797 66.9717 92.3031C67.343 93.0036 67.5651 94.2911 67.4654 95.1646C67.3011 96.6014 67.0609 96.7503 64.9522 96.7209C63.3219 96.6985 62.6208 96.4332 62.6208 95.8386C62.6208 95.371 62.1318 94.7876 61.5338 94.5417C60.723 94.2082 60.5243 93.6871 60.751 92.489C60.9183 91.6062 60.8175 90.4351 60.5266 89.887C59.7462 88.4154 60.8786 85.8721 62.3148 85.8721C63.8098 85.8721 63.8145 85.2334 62.3294 83.95C61.6882 83.396 61.1637 82.5896 61.1637 82.1573C61.1637 80.3846 66.5917 77.0497 69.4768 77.0497C70.1238 77.0497 71.8298 76.4568 73.2677 75.7322L75.8823 74.4141L75.5478 69.9976C75.0943 64.0165 74.1694 60.8722 73.1208 61.7503C72.517 62.2555 72.1865 62.1614 71.7126 61.3486C71.1747 60.4257 71.0167 60.4022 70.5091 61.1692C70.1873 61.6544 69.9204 62.4843 69.9151 63.0131C69.9041 64.2224 68.7728 66.8562 67.3599 68.9624C66.6366 70.0405 65.7635 70.5798 64.7394 70.5798C63.8949 70.5798 61.5786 71.1674 59.5929 71.8862C57.6065 72.6049 55.8382 73.0478 55.6621 72.8702C55.4867 72.6931 55.6009 70.451 55.9168 67.8878C56.6425 61.9985 56.252 35.0535 55.3684 30.07C55.0024 28.0078 54.8561 26.1669 55.0426 25.9781C55.4529 25.5646 57.5844 28.0525 58.9506 30.5411C60.0277 32.502 61.187 32.9802 60.8384 31.3198C60.7195 30.7534 60.2299 27.9084 59.7503 24.997C59.2706 22.0856 58.1165 17.4538 57.1857 14.7041C56.2549 11.9545 55.3078 7.99728 55.0805 5.91047C54.6258 1.73156 53.9497 -1.57581e-06 52.7712 -1.62732e-06C51.5758 -1.67958e-06 48.9337 7.89377 48.9273 11.4851C48.9256 12.465 48.5619 13.7884 48.1195 14.4259C47.6777 15.0641 46.8524 17.3068 46.2853 19.4095C44.9908 24.2154 41.6901 31.6104 40.0581 33.3637C39.375 34.0971 38.9268 34.8088 39.062 34.9453C39.5825 35.4699 44.0168 31.9103 45.2554 29.9735C47.6013 26.3039 49.2083 24.1477 49.6093 24.1312C49.8261 24.1218 50.0272 29.0777 50.0569 35.1429C50.0866 41.2086 50.2288 48.079 50.374 50.4116C50.5185 52.7437 50.4241 54.7847 50.1647 54.9464C49.9048 55.1087 49.164 54.52 48.5182 53.6389C47.8724 52.7578 46.1914 51.2592 44.7827 50.3099C43.3739 49.36 41.6965 48.1454 41.0554 47.6114C38.7479 45.6887 31.0408 43.5572 27.067 43.743C24.4541 43.8648 24.4879 43.736 25.4199 49.9941C25.8436 52.8408 26.0761 53.2525 27.3584 53.426C29.473 53.7113 29.9975 54.4918 28.5865 55.254C26.385 56.4427 27.1398 57.242 30.0803 56.8356C32.9042 56.4451 39.9369 57.8078 41.0554 58.963C41.4505 59.3706 41.2081 59.46 40.3029 59.2394C39.15 58.9583 39.0206 59.0883 39.3552 60.1887C39.8232 61.7268 39.5697 61.5145 41.4925 61.9797C42.7468 62.2838 43.0953 62.1579 43.0953 61.4009C43.0953 60.6322 43.4835 60.504 44.9896 60.7745C47.0803 61.1504 47.3169 61.375 42.0112 57.9566C40.5238 56.9991 39.1057 55.8892 38.8598 55.4916C38.6138 55.094 37.24 54.5912 35.8056 54.3741C32.9229 53.9377 32.8296 53.2366 35.5725 52.629C36.9725 52.3185 37.6655 52.5196 38.7549 53.5519C39.9083 54.6459 40.2994 54.7441 41.0385 54.1253C42.1727 53.1754 42.1628 52.3567 40.9965 50.6757C40.1088 49.3971 40.0091 49.3806 38.9565 50.3422C37.9033 51.3039 37.8497 51.2939 37.8497 50.134C37.8497 49.4641 37.5215 48.7977 37.1211 48.653C36.7201 48.5089 36.5552 48.2119 36.7545 47.9937C37.0972 47.6179 38.0275 47.9178 42.3236 49.7894C43.3413 50.2328 45.6645 52.3085 47.4859 54.4024L50.7971 58.2084L50.9924 65.8933C51.1841 73.4648 51.169 73.5724 49.9671 73.1872C48.9996 72.8772 48.823 72.996 49.1138 73.76C49.3312 74.3323 49.0363 75.1364 48.387 75.7398C47.7861 76.2986 46.0807 77.9078 44.5979 79.3159C42.3866 81.4156 41.749 81.7473 41.049 81.1615C40.1228 80.3857 38.4325 80.7574 38.4325 81.7367C38.4325 82.0702 39.3505 82.3431 40.4725 82.3431C42.7637 82.3431 42.9415 82.6549 41.5397 84.2176C40.6293 85.2328 40.634 85.3522 41.6131 86.0751C42.4944 86.725 42.5486 87.0579 41.9564 88.1748C41.5688 88.9047 41.3987 89.6493 41.577 89.8293C42.133 90.391 43.6782 88.7253 43.6782 87.5649C43.6782 86.2097 44.1445 86.1715 45.5048 87.4137C46.1786 88.0295 46.9182 88.2054 47.5909 87.9113C48.5735 87.4802 48.5747 87.4408 47.6124 87.2085C46.3669 86.9079 46.2538 85.8721 47.4667 85.8721C47.9476 85.8721 48.341 85.6075 48.341 85.284C48.341 84.5464 47.6567 84.5405 45.777 85.2616C43.8834 85.988 43.2614 85.0569 44.8771 83.9153C45.6931 83.3383 45.8767 82.9178 45.432 82.6408C45.0088 82.3767 45.6261 81.4862 47.138 80.1805C48.4406 79.0553 49.5067 77.7578 49.5067 77.2979C49.5067 76.8373 50.0627 76.4615 50.7435 76.4615C51.6848 76.4615 51.8322 76.6421 51.3601 77.2167C50.9609 77.7013 50.9352 78.2795 51.2884 78.8341C51.7378 79.5388 51.9039 79.4541 52.1977 78.373C52.6063 76.8673 53.1203 76.7456 54.7459 77.7702C55.6225 78.3225 56.0486 78.3295 56.5749 77.7984C57.1012 77.2673 56.9007 76.9403 55.7152 76.395C53.4701 75.3628 53.8052 74.817 56.938 74.4029C58.461 74.2018 60.7149 73.5236 61.9476 72.8966C63.1797 72.2696 64.705 71.7562 65.3369 71.7562C65.9687 71.7562 66.9776 71.4909 67.5779 71.1662C68.3199 70.7657 68.7914 70.7751 69.0484 71.1951C69.3084 71.6191 69.6861 71.5968 70.2497 71.1245C71.3402 70.2111 71.293 69.4035 70.1494 69.4035C69.6418 69.4035 69.3358 69.073 69.4693 68.6683C69.6027 68.2642 70.477 67.9331 71.4119 67.9331C72.9081 67.9331 73.1342 68.1648 73.2962 69.8682C73.4956 71.9561 71.5786 74.6676 69.8907 74.687C69.4005 74.6923 68.4807 75.064 67.8454 75.5128C67.2107 75.9621 65.5129 76.6691 64.0732 77.0849C61.1473 77.9296 59.2478 79.29 59.6209 80.2722C59.7572 80.6298 59.5043 81.4244 59.059 82.0391C57.9417 83.5812 58.0128 84.9134 59.1884 84.4582C59.9502 84.1629 60.0574 84.3759 59.7567 85.5863C59.5527 86.4068 58.8871 87.5813 58.278 88.196C57.5931 88.8871 57.2906 89.7793 57.4865 90.5339C57.6602 91.205 57.5313 91.7538 57.2003 91.7538C56.2945 91.7538 56.0037 90.4245 56.6378 89.1829C57.0167 88.4418 57.0039 88.2048 56.5994 88.4577C55.6161 89.0706 55.0805 87.5143 56.0334 86.8114C56.583 86.4062 56.7626 85.7427 56.5154 85.0322C56.182 84.0735 56.0678 84.0418 55.7688 84.827C55.5753 85.3375 54.4143 85.9327 53.1903 86.1503C51.4423 86.4609 50.6048 87.0738 49.2922 89.0029C48.373 90.354 47.9668 91.1292 48.3888 90.7245C48.8113 90.3204 49.3668 89.9893 49.6232 89.9893C50.7633 89.9893 49.8785 91.6356 47.3402 94.2364C44.5956 97.0479 44.5927 97.0549 45.7502 98.223C46.9077 99.3911 46.913 99.3911 48.781 98.073C50.8845 96.5897 51.3013 95.2269 49.5067 95.7004C48.672 95.9209 48.341 95.7186 48.341 94.9887C48.341 94.2188 48.6971 94.0382 49.7975 94.2506C51.0914 94.4999 51.3228 94.2617 51.8719 92.1132C52.9414 87.9295 53.0661 87.6366 53.7714 87.6366C54.2878 87.6372 54.4516 92.1079 54.4247 105.429C54.4043 115.215 54.62 129.44 54.9039 137.043C55.5065 153.188 55.485 155.502 54.7296 155.766C54.4218 155.874 54.1695 157.147 54.1695 158.594C54.1695 160.069 54.4078 161.078 54.7121 160.889C55.0105 160.702 55.4203 160.821 55.6231 161.152C55.8259 161.483 55.5817 161.913 55.0804 162.107C54.5798 162.301 54.1695 162.813 54.1695 163.245C54.1695 164.314 56.6308 166.014 57.0907 165.263C57.2988 164.923 59.0835 164.803 61.3787 164.975C64.2055 165.187 65.7845 165.022 66.9968 164.39C67.9241 163.906 69.2285 163.51 69.8959 163.51C70.5627 163.51 71.2598 163.113 71.4439 162.628C72.0373 161.068 72.8206 161.686 72.8206 163.713C72.8206 165.654 70.9141 168.252 70.0958 167.426C69.8837 167.212 69.2845 167.425 68.7646 167.899C67.9334 168.658 67.617 168.656 66.1429 167.885C64.5605 167.056 64.3798 167.091 62.9285 168.493C62.0834 169.311 61.0727 169.98 60.6834 169.98C60.2218 169.98 60.1017 170.485 60.3372 171.433C60.5732 172.381 60.3745 173.213 59.7654 173.828C58.5035 175.101 58.5898 175.816 59.9624 175.453C60.9427 175.194 61.0879 175.462 61.0605 177.478C61.043 178.756 61.3041 180.321 61.641 180.957C62.0811 181.785 62.0548 182.515 61.5483 183.539C60.589 185.481 59.2123 185.617 58.2809 183.862C57.6298 182.634 57.6508 182.052 58.4161 180.122C58.9704 178.723 59.1266 177.519 58.8188 177.017C58.4347 176.388 58.1719 176.58 57.7009 177.828C57.0004 179.688 55.918 179.409 55.918 177.369C55.918 174.642 53.1967 174.005 50.3914 176.075C49.3231 176.863 49.2922 177.14 49.977 179.724C50.508 181.728 50.5395 182.701 50.0883 183.156C49.6366 183.612 49.3068 183.545 48.925 182.921C47.9254 181.29 43.4981 186.438 41.5927 191.448C41.2232 192.418 40.7103 193.719 40.4521 194.338C40.1205 195.134 40.1822 195.34 40.6648 195.039C41.1049 194.764 41.3468 195.063 41.3468 195.88C41.3468 196.63 40.8945 197.265 40.2347 197.439C39.6233 197.6 38.9752 198.171 38.7945 198.707C38.6144 199.243 38.218 200.079 37.915 200.564C37.6113 201.05 37.0471 202.307 36.6613 203.358C35.9036 205.422 34.9354 205.913 34.9354 204.232C34.9354 203.662 35.4553 201.76 36.0901 200.006C36.7254 198.252 37.1549 196.726 37.0442 196.614C36.5913 196.158 34.3526 202.388 34.3526 204.105C34.3526 206.538 32.9613 206.142 32.7154 203.639C32.5842 202.307 32.3004 201.895 31.6779 202.137C31.1085 202.357 30.9505 202.881 31.2081 203.699C31.7263 205.347 34.6184 208.211 35.7648 208.211C36.2702 208.211 36.684 208.482 36.684 208.814C36.684 209.163 37.3886 209.049 38.3585 208.543C40.0989 207.635 40.7424 206.207 40.7558 203.222C40.7703 200.119 44.2738 191.247 46.097 189.699C47.6882 188.348 48.2769 187.037 47.2918 187.037C47.0354 187.037 46.4782 187.368 46.0533 187.772C45.432 188.363 45.3294 188.346 45.5293 187.681C45.8854 186.498 48.341 185.652 48.341 186.713C48.341 187.16 48.6126 187.618 48.9442 187.729C49.5521 187.934 49.8978 233.303 49.2957 233.91C49.1377 234.07 47.1158 233.954 44.8025 233.652C40.1473 233.046 35.1639 233.663 33.7907 235.014C32.7439 236.044 33.2906 236.072 37.3502 235.193C39.6752 234.69 41.8515 234.712 46.4624 235.286C52.0438 235.981 52.5625 236.154 53.0655 237.489C53.3657 238.286 53.6391 239.633 53.6734 240.484C53.783 243.222 54.8042 245.853 55.7566 245.853C56.5795 245.853 56.6343 242.836 56.3044 215.563C56.0591 195.21 56.1331 185.272 56.5306 185.272C57.1822 185.272 61.1637 189.115 61.1637 189.743C61.1637 190.683 64.2632 192.918 65.5653 192.918C66.6174 192.918 66.9921 193.236 66.9921 194.129C66.9921 194.856 67.2468 195.181 67.6298 194.943C67.9807 194.724 68.1468 193.908 67.9993 193.129C67.8518 192.351 67.9585 191.572 68.2359 191.399C68.5134 191.226 68.7407 190.662 68.7407 190.146C68.7407 189.307 68.6317 189.301 67.7207 190.091C65.5607 191.963 64.8863 192.092 65.9658 190.426C67.051 188.752 66.4402 187.64 65.2383 189.102C64.842 189.583 64.1473 189.977 63.6944 189.977C63.0521 189.977 63.0078 189.719 63.495 188.801C63.9928 187.862 63.938 187.625 63.224 187.625C62.7146 187.625 62.3293 187.112 62.3293 186.434C62.3293 185.401 62.6563 185.264 64.8065 185.403C66.1686 185.49 67.4707 185.828 67.6997 186.153C67.9585 186.52 68.4906 186.364 69.1102 185.739C70.0469 184.794 70.2025 184.794 71.7843 185.737C72.943 186.428 73.3644 187.058 73.1424 187.769C72.9652 188.337 72.6592 189.33 72.461 189.977C72.25 190.668 72.3707 191.154 72.7524 191.154C73.1109 191.154 73.4035 190.657 73.4035 190.049C73.4035 188.329 74.8956 187.477 77.4723 187.725C79.2844 187.899 79.8131 187.746 79.8061 187.052C79.7909 185.554 78.9038 184.622 77.8739 185.021C77.2654 185.257 76.8866 185.099 76.8639 184.6C76.8435 184.161 76.5678 184.457 76.2507 185.258C75.8072 186.381 75.5612 186.528 75.1771 185.901C74.9032 185.454 74.7813 184.402 74.9067 183.563L75.134 182.037L74.1973 183.361C73.0287 185.013 72.2378 185.056 72.2378 183.468C72.2378 182.479 71.993 182.328 70.9264 182.658C70.2048 182.881 69.2787 183.335 68.8683 183.667C68.0494 184.329 66.4618 182.731 66.428 181.211C66.414 180.585 66.1179 180.651 65.208 181.481C64.1799 182.421 63.9293 182.455 63.4682 181.72C62.5718 180.29 62.8306 179.479 64.0779 179.808C64.9644 180.042 65.2436 179.826 65.2436 178.906C65.2436 177.178 66.2379 176.789 67.8792 177.875C68.6608 178.391 70.417 178.792 71.7878 178.766C73.1575 178.741 75.0646 178.955 76.0263 179.242C77.5056 179.682 77.8028 180.096 77.9555 181.929C78.1298 184.011 79.232 185.078 79.232 183.165C79.232 181.858 80.544 182.441 81.4334 184.142C82.4231 186.036 81.1915 194.312 79.5117 197.054C78.8246 198.176 78.0476 196.993 78.6841 195.793C79.0256 195.149 79.2197 194.04 79.1154 193.329C78.9691 192.331 78.4813 192.906 76.974 195.859C74.8484 200.022 70.5644 206.446 69.9146 206.446C69.327 206.446 69.3696 199.273 69.9635 198.126C70.2876 197.502 70.1955 196.934 69.7047 196.522C68.4038 195.433 66.8738 199.47 67.5074 202.317C67.8798 203.988 67.7994 205.053 67.2148 206.19C66.7718 207.052 66.4052 208.19 66.4005 208.719C66.3959 209.248 66.0269 210.739 65.5811 212.032C65.1352 213.325 64.8927 214.583 65.0419 214.827C65.1911 215.071 67.1169 213.483 69.32 211.3C71.5238 209.115 73.7398 206.931 74.2439 206.446C76.0741 204.686 81.3559 197.875 82.2267 196.153C82.7174 195.183 83.8178 193.026 84.6723 191.361C85.5268 189.696 86.2186 187.976 86.2093 187.538C86.1999 187.101 85.4131 185.878 84.4607 184.822ZM85.0605 283.202C84.4193 284.353 83.8948 285.691 83.8948 286.175C83.8948 286.658 83.2391 287.305 82.4376 287.613C81.6362 287.92 80.9805 288.443 80.9805 288.774C80.9805 289.106 80.555 289.377 80.0351 289.377C79.3526 289.377 79.2535 289.173 79.6784 288.642C80.0031 288.238 80.9997 285.713 81.8938 283.032C83.0764 279.487 83.7432 278.243 84.3377 278.473C84.7877 278.648 85.3968 278.79 85.6911 278.79C86.6004 278.79 86.2839 281.004 85.0605 283.202ZM82.3555 273.962C81.6834 276.494 80.7573 274.941 80.8266 271.401C80.8639 269.48 80.7748 268.439 80.6273 269.086C79.7169 273.089 79.028 275.261 78.6707 275.261C77.7638 275.261 77.6081 274.487 78.1811 272.829C79.0583 270.29 78.3344 270.102 77.1757 272.567C75.4026 276.337 74.6554 274.879 75.9942 270.262C76.1901 269.586 76.0216 269.716 75.5979 270.568C74.248 273.282 72.9599 274.789 72.5549 274.127C72.2838 273.685 71.8269 273.677 71.0365 274.104C69.7065 274.823 69.6371 274.34 70.7807 272.321C71.2388 271.512 71.6229 270.619 71.6345 270.337C71.6707 269.437 69.805 271.337 69.2775 272.738C68.771 274.081 67.575 274.614 67.575 273.497C67.575 273.173 67.1816 272.909 66.7007 272.909C65.204 272.909 65.7419 271.877 67.575 271.232C69.5211 270.548 70.1104 268.271 68.3035 268.416C67.5983 268.472 67.2264 267.998 67.0994 266.88C66.9187 265.3 67.7318 264.68 68.4493 265.851C68.8899 266.57 73.3458 266.575 76.9006 265.86C78.7068 265.497 80.0223 265.55 81.1262 266.03C82.5711 266.658 82.7285 267.016 82.7209 269.67C82.7168 271.289 82.5525 273.221 82.3555 273.962ZM78.2464 92.9301C77.5446 91.3938 77.2439 91.1327 77.0603 91.9008C76.9256 92.4672 76.4407 92.9301 75.9838 92.9301C74.7516 92.9301 74.9749 94.17 76.2682 94.5111C76.8825 94.6734 77.5429 95.4422 77.7364 96.2203C77.9299 96.999 78.3461 97.6354 78.6602 97.6354C79.5176 97.6354 79.3083 95.2557 78.2464 92.9301ZM77.4834 292.158C76.8423 292.98 76.3177 293.497 76.3177 293.307C76.3177 292.495 77.7119 289.966 78.1601 289.966C78.9231 289.966 78.7465 290.537 77.4834 292.158ZM75.9173 100.68C75.7792 101.546 75.2878 102.571 74.8262 102.958C74.1146 103.554 73.9852 103.223 73.9776 100.795C73.9712 98.7583 73.8086 98.1848 73.4157 98.8118C73.1121 99.297 72.5292 99.694 72.1212 99.694C70.695 99.694 71.0231 101.656 72.7886 103.685C73.7678 104.81 74.5692 106.049 74.5692 106.437C74.5692 106.826 74.8798 107.04 75.2599 106.912C75.6801 106.77 75.9931 105.199 76.0595 102.892C76.1196 100.81 76.0554 99.8146 75.9173 100.68ZM74.9574 193.816C74.0551 195.163 73.3225 197.035 73.6984 197.035C74.0196 197.035 75.7349 193.73 75.7349 193.111C75.7349 192.861 75.3852 193.179 74.9574 193.816ZM75.152 297.612C74.8315 297.612 74.5692 297.363 74.5692 297.058C74.5692 296.754 74.8315 296.341 75.152 296.141C75.4726 295.941 75.7349 296.191 75.7349 296.695C75.7349 297.199 75.4726 297.612 75.152 297.612ZM74.0318 281.286C73.6722 281.202 73.1377 281.772 72.8439 282.552C72.1626 284.359 71.2236 284.943 70.2747 284.149C69.7443 283.704 69.3311 283.723 68.8433 284.216C67.8617 285.206 67.9906 286.464 69.0321 286.061C70.1494 285.628 70.1378 286.122 68.9884 287.892C68.4831 288.67 67.7236 289.172 67.2999 289.008C66.4058 288.662 65.7553 285.962 66.4606 285.523C66.7229 285.358 67.5301 284.373 68.2534 283.331C69.0799 282.142 69.2087 281.729 68.6002 282.221C67.4742 283.132 65.3194 282.629 64.2446 281.204C63.1844 279.8 63.3394 279.379 64.9178 279.379C65.7006 279.379 66.5136 279.096 66.7246 278.751C67.3337 277.757 66.5264 277.372 65.549 278.19C64.8152 278.805 64.6607 278.769 64.6607 277.98C64.6607 276.818 64.7091 276.82 62.1277 277.908C59.3271 279.089 59.0147 279.036 58.6895 277.32C58.4959 276.298 58.6691 275.85 59.2566 275.85C59.7217 275.85 60.554 275.287 61.1065 274.599C62.2472 273.177 64.6607 273.503 64.6607 275.079C64.6607 275.804 64.8333 275.849 65.4907 275.298C66.5486 274.413 71.0225 275.489 72.0921 276.886C72.5164 277.441 72.8206 277.546 72.8206 277.138C72.8206 276.208 74.3943 276.236 74.7545 277.173C75.2435 278.444 74.7161 281.444 74.0318 281.286ZM74.638 288.789C74.3174 288.789 73.8931 289.054 73.6949 289.377C73.4967 289.701 73.597 289.966 73.9175 289.966C74.2381 289.966 74.6624 289.701 74.8606 289.377C75.0588 289.054 74.9585 288.789 74.638 288.789ZM71.2568 58.7065C71.0884 59.1306 71.1094 59.6382 71.3029 59.8335C71.4964 60.0287 71.634 59.6817 71.6089 59.0618C71.5809 58.3766 71.4428 58.2372 71.2568 58.7065ZM70.843 279.379C70.7171 279.379 70.463 279.776 70.2782 280.261C70.0941 280.746 70.1972 281.143 70.5073 281.143C70.818 281.143 71.0721 280.746 71.0721 280.261C71.0721 279.776 70.9689 279.379 70.843 279.379ZM70.0917 277.044C69.4523 277.069 67.3838 279.97 67.7458 280.335C67.9025 280.493 68.602 279.813 69.2996 278.824C69.9973 277.835 70.354 277.034 70.0917 277.044ZM65.1783 271.399C64.3204 272.345 63.836 271.192 64.4066 269.563C65.1917 267.322 66.5777 266.998 66.0683 269.175C65.8527 270.096 65.4517 271.097 65.1783 271.399ZM62.8732 90.2593C62.5316 90.0458 62.1055 90.0187 61.9272 90.1993C61.4475 90.6827 62.1959 92.342 62.8941 92.342C63.6851 92.342 63.6693 90.7557 62.8732 90.2593ZM63.0527 387.013C62.809 387.013 62.3037 386.549 61.9289 385.984C61.5547 385.418 60.1804 383.397 58.8748 381.493C56.9934 378.75 56.5113 377.53 56.5498 375.612C56.5766 374.28 56.4158 372.331 56.1919 371.279C55.6913 368.923 56.6949 368.704 57.5459 370.985C59.4571 376.107 59.5118 377.443 57.7388 375.691C57.1356 375.095 57.1303 375.261 57.7132 376.568C58.2651 377.806 58.6108 378.032 59.1977 377.54C60.0323 376.841 60.913 378.421 62.5124 383.484C63.5621 386.808 63.5935 387.013 63.0527 387.013ZM62.3293 263.498C62.0088 263.498 61.7465 263.911 61.7465 264.415C61.7465 264.919 62.0088 265.168 62.3293 264.968C62.6499 264.769 62.9122 264.356 62.9122 264.052C62.9122 263.747 62.6499 263.498 62.3293 263.498ZM61.2843 366.432C62.0373 368.468 62.4821 378.19 61.8223 378.19C61.0547 378.19 60.4986 376.438 60.8804 375.223C61.1753 374.285 59.5136 370.499 58.1946 369.103C57.2568 368.111 57.6327 365.712 58.8999 364.603C59.875 363.75 60.0387 363.18 59.6809 361.888C59.3452 360.672 59.1668 360.516 58.9879 361.281C58.6358 362.784 57.7237 362.538 57.0528 360.758C56.3715 358.949 56.7148 358.328 57.8641 359.29C58.5251 359.844 58.6218 359.698 58.3928 358.492C58.222 357.589 58.3811 357.016 58.8037 357.016C59.2286 357.016 59.3516 356.564 59.1237 355.84C58.6358 354.289 59.7735 354.318 60.6006 355.878C61.0739 356.769 61.0686 357.305 60.582 357.897C60.0778 358.51 60.1903 359.308 61.0517 361.241C61.9371 363.227 62.0268 363.91 61.4632 364.374C60.9573 364.79 60.9043 365.404 61.2843 366.432ZM60.0323 353.803C59.3848 353.399 57.4486 348.806 57.7831 348.468C58.3415 347.905 59.8476 348.845 60.4048 350.105C60.9999 351.451 60.7201 354.232 60.0323 353.803ZM59.6745 379.626C58.8037 378.53 58.7932 378.537 59.4034 379.808C59.7532 380.535 60.1611 381.131 60.3098 381.131C60.7557 381.131 60.6268 380.826 59.6745 379.626ZM59.6255 266.259C59.1598 265.789 58.2494 266.32 58.2494 267.062C58.2494 267.366 58.6428 267.615 59.1237 267.615C60.0248 267.615 60.2818 266.921 59.6255 266.259ZM58.7611 340.645L57.5243 341.473L58.7611 344.213C60.3028 347.628 60.2993 347.719 58.6492 346.961C57.0691 346.234 55.6312 341.984 56.7235 341.269C57.0819 341.034 57.4241 340.445 57.4835 339.96C57.543 339.474 57.7755 338.416 57.9999 337.607C58.3357 336.396 58.2704 336.266 57.6293 336.872C56.5078 337.93 55.918 337.779 55.918 336.431C55.918 335.784 56.15 335.254 56.4327 335.254C56.7159 335.254 57.0919 334.698 57.2679 334.019C57.6794 332.432 58.8322 333.126 58.8322 334.96C58.8322 335.731 59.0945 336.525 59.4151 336.725C60.4427 337.366 60.0382 339.789 58.7611 340.645ZM58.2494 329.961C57.163 328.559 56.72 327.02 57.4031 327.02C57.6992 327.02 59.3574 330.474 59.3795 331.137C59.3848 331.299 58.8765 330.769 58.2494 329.961ZM58.2494 263.204C57.9288 263.404 57.6666 263.684 57.6666 263.827C57.6666 263.97 57.9288 264.086 58.2494 264.086C58.57 264.086 58.8323 263.806 58.8323 263.463C58.8323 263.121 58.57 263.004 58.2494 263.204ZM57.6666 166.451C57.346 166.451 57.0837 166.715 57.0837 167.039C57.0837 167.362 57.346 167.627 57.6666 167.627C57.9871 167.627 58.2494 167.362 58.2494 167.039C58.2494 166.715 57.9871 166.451 57.6666 166.451ZM57.6665 356.428C57.346 356.428 57.0837 356.164 57.0837 355.84C57.0837 355.517 57.346 355.252 57.6665 355.252C57.9871 355.252 58.2494 355.517 58.2494 355.84C58.2494 356.164 57.9871 356.428 57.6665 356.428ZM56.5009 315.845C56.1803 315.845 55.918 315.58 55.918 315.257C55.918 314.933 56.1803 314.668 56.5009 314.668C56.8214 314.668 57.0837 314.933 57.0837 315.257C57.0837 315.58 56.8214 315.845 56.5009 315.845ZM55.6977 23.5266C55.2565 23.5266 54.5687 23.1296 54.1695 22.6444C52.8965 21.0963 52.397 21.6851 52.4996 24.6135C52.6191 28.0273 51.8142 29.8911 51.1923 27.6379C50.9702 26.8321 50.7627 25.1011 50.7307 23.7913C50.6986 22.4814 50.3909 21.1251 50.047 20.7781C49.2077 19.9312 50.4585 15.1235 51.4336 15.447C51.8165 15.574 52.2752 16.9803 52.453 18.5731L52.7765 21.468L53.0358 19.1154C53.2019 17.6067 53.5901 16.7627 54.117 16.7627C54.5687 16.7627 55.2623 17.8214 55.6586 19.1154C56.639 22.3179 56.6495 23.5266 55.6977 23.5266ZM56.2718 358.193C55.7187 358.193 55.4401 356.432 55.9437 356.118C56.2502 355.927 56.5009 356.316 56.5009 356.982C56.5009 357.647 56.3977 358.193 56.2718 358.193ZM54.7302 237.655C54.4282 238.148 53.9894 237.797 53.3523 236.554C52.4052 234.706 52.1114 226.401 52.5631 214.239C52.6622 211.57 52.6622 209.387 52.5631 209.387C52.4646 209.387 52.1464 209.982 51.8561 210.71C51.4167 211.814 51.3228 211.612 51.2919 209.499C51.2698 207.951 51.4819 207.106 51.8381 207.328C52.3294 207.635 52.784 203.935 52.4757 202.139C52.4302 201.874 52.3708 200.07 52.344 198.131C52.3055 195.374 52.1178 194.675 51.4837 194.92C50.8513 195.164 50.6724 194.523 50.6724 192.018C50.6724 190.249 50.9346 188.801 51.2552 188.801C51.5758 188.801 51.8381 188.521 51.8381 188.178C51.8381 187.836 51.5758 187.719 51.2552 187.919C50.9346 188.119 50.6724 187.737 50.6724 187.071C50.6724 186.405 50.9061 185.86 51.1917 185.86C51.8002 185.86 51.6387 180.163 50.9877 178.648C50.4515 177.4 51.5915 175.803 52.71 176.236C54.0057 176.738 54.3909 178.229 54.7395 184.096C55.2437 192.575 55.2355 236.829 54.7302 237.655ZM54.6888 328.637C54.7482 377.702 54.6322 387.013 53.9608 387.013C53.3622 387.013 53.0912 385.637 52.8773 381.509C52.7205 378.481 52.3743 375.649 52.1085 375.215C51.1357 373.627 50.9428 365.919 51.8532 365C52.6628 364.183 52.5555 361.875 51.6923 361.521C51.2202 361.328 51.1689 361.052 51.5466 360.737C52.2665 360.137 52.3201 343.046 51.6073 341.539C51.2989 340.889 51.3589 339.903 51.7617 339.012C52.1242 338.209 52.3947 336.572 52.3626 335.374C52.3113 333.453 52.253 333.369 51.866 334.666C51.4545 336.046 51.3998 335.998 50.9766 333.886C50.7289 332.649 50.7132 330.399 50.9422 328.887C51.1713 327.375 51.3228 324.771 51.2791 323.102C51.2354 321.432 51.4883 319.886 51.8421 319.665C52.5643 319.215 52.5585 288.194 51.8357 286.142C51.6078 285.495 51.7087 284.326 52.0601 283.542C52.5445 282.463 52.5241 282.06 51.9768 281.876C51.1206 281.588 50.9929 278.202 51.8381 278.202C52.7228 278.202 52.4984 273.944 51.5466 272.675C50.5616 271.362 51.0034 270.201 52.1295 271.144C53.3873 272.198 53.8192 270.707 52.7386 269.043C51.8258 267.638 51.9878 266.1 52.9828 266.72C53.248 266.885 53.621 266.608 53.8128 266.104C54.4889 264.326 55.4517 265.925 55.0292 268.124C54.8036 269.3 54.6503 296.531 54.6888 328.637ZM54.6357 390.424C53.5493 391.52 53.0038 391.265 53.0038 389.66C53.0038 388.581 53.3144 388.189 54.1695 388.189C55.468 388.189 55.7082 389.342 54.6357 390.424ZM53.7492 73.3689C53.072 73.596 52.9105 68.9859 52.9094 49.4059C52.9088 44.5953 52.8942 44.7006 53.5674 44.7006C54.1701 44.7006 54.5378 53.0084 54.49 65.5322C54.469 70.9692 54.2586 73.1984 53.7492 73.3689ZM53.9777 401.864C54.0191 403.077 53.8827 404.065 53.674 404.061C52.7333 404.038 51.9861 403.048 51.6877 401.428C51.2424 399.013 52.3702 392.894 53.2602 392.894C54.5833 392.894 54.8275 393.737 54.3635 396.705C54.11 398.33 53.9363 400.651 53.9777 401.864ZM53.5866 39.1865C53.5866 39.6312 53.0621 39.9952 52.4209 39.9952C51.0384 39.9952 50.9148 39.2483 52.1295 38.2307C53.2754 37.2709 53.2422 36.4662 52.0566 36.4662C51.2989 36.4662 51.1853 36.0834 51.4872 34.5547C51.6947 33.5037 52.1208 32.5549 52.4343 32.4473C52.7473 32.3391 53.0411 31.8097 53.0865 31.271C53.132 30.7316 53.3657 31.3492 53.6064 32.6432C53.8472 33.9371 53.941 35.7569 53.8151 36.6868C53.6898 37.6167 53.5866 38.7419 53.5866 39.1865ZM53.3034 43.1143C52.9869 43.1778 52.6401 42.7673 52.5317 42.2009C52.4093 41.5568 52.6949 41.1716 53.2952 41.1716C54.3094 41.1716 54.3164 42.9096 53.3034 43.1143ZM53.2556 150.338C52.798 149.078 52.1983 147.755 51.9232 147.397C51.6481 147.04 51.3788 144.564 51.3246 141.895C51.2436 137.895 51.3829 137.043 52.1149 137.043C52.8231 137.043 52.9915 136.295 52.9443 133.366C52.8924 130.172 52.8231 129.953 52.4157 131.697C52.158 132.801 52.0782 134.124 52.2391 134.638C52.4932 135.452 52.4501 135.459 51.9022 134.69C51.556 134.205 51.2692 132.427 51.264 130.738C51.257 128.249 51.4207 127.733 52.1295 128.007C52.7654 128.254 53.0038 127.938 53.0038 126.847C53.0038 124.902 52.0019 124.279 51.6504 126.006C51.5012 126.738 51.4004 126.081 51.4266 124.544C51.4522 123.007 51.6865 121.75 51.9471 121.75C52.2076 121.75 52.4023 120.89 52.3801 119.839C52.3481 118.342 52.2431 118.174 51.8975 119.065C51.655 119.69 51.3065 119.955 51.1229 119.653C50.5978 118.787 50.9393 115.701 51.7162 114.287C52.1977 113.411 52.2297 112.878 51.8159 112.62C51.4814 112.411 51.3823 111.686 51.5956 111.007C51.971 109.815 51.9529 104.493 51.5612 100.87C51.4569 99.8999 51.3362 98.7088 51.2943 98.2236C51.2342 97.5266 51.0431 97.5749 50.385 98.4524C49.9263 99.0629 48.9681 99.857 48.2553 100.217C47.0762 100.812 43.8344 105.436 43.7242 106.681C43.6986 106.966 44.7267 106.171 46.0078 104.916C47.2895 103.662 48.6178 102.635 48.9605 102.635C49.5749 102.635 50.3728 144.927 49.7771 145.9C49.632 146.136 48.4389 146.054 47.1257 145.718C45.2426 145.236 43.7936 145.329 40.2738 146.161C32.0725 148.097 24.0775 151.027 21.5754 153.013C19.9591 154.296 14.1254 160.95 13.3403 162.405C12.8769 163.265 13.0395 163.284 14.9927 162.6C16.184 162.183 18.47 161.238 20.0728 160.501C22.5674 159.354 23.933 159.164 29.5563 159.181C35.1528 159.199 36.2369 159.356 36.8798 160.243C37.5833 161.214 37.7005 161.181 38.6295 159.75C39.2474 158.798 39.3733 158.216 38.9606 158.216C38.5957 158.216 38.4215 157.735 38.5742 157.145C38.8423 156.11 38.7834 156.11 36.7703 157.145C33.8082 158.669 32.4997 158.519 34.4144 156.874C35.2496 156.157 36.4299 155.27 37.0372 154.903C37.6445 154.537 37.9249 154.01 37.6603 153.732C37.3956 153.454 36.9434 153.652 36.6549 154.172C36.3203 154.776 35.6255 155.021 34.7338 154.849C33.965 154.7 32.5289 155 31.5421 155.516C30.5553 156.031 29.2398 156.452 28.6197 156.452C27.9995 156.452 26.7406 156.847 25.822 157.331C23.1636 158.73 22.1798 158.396 24.1527 156.764C25.1144 155.969 26.2143 155.309 26.5966 155.297C26.979 155.285 28.2869 154.683 29.5033 153.959C31.0752 153.023 31.4308 152.587 30.7331 152.451C30.1928 152.347 29.1472 152.559 28.4087 152.925C27.1206 153.563 27.1241 153.544 28.4961 152.43C30.5478 150.763 34.1323 149.659 35.0625 150.408C35.4734 150.739 37.1211 151.183 38.724 151.394C41.4097 151.748 41.5496 151.708 40.5069 150.88C39.8844 150.386 38.654 149.982 37.7728 149.982C36.8909 149.982 36.0073 149.717 35.8091 149.393C35.2502 148.481 37.7069 147.796 43.1968 147.335C47.8671 146.942 48.3416 147.007 50.0272 148.264C51.0232 149.007 51.8381 149.824 51.8381 150.079C51.8381 150.333 52.3615 151.408 53.0014 152.468C54.3426 154.687 54.4644 153.666 53.2556 150.338ZM52.4623 170.568C51.6615 170.568 51.3974 170.289 51.6271 169.686C51.88 169.02 51.5257 168.803 50.1863 168.803C47.7371 168.803 47.3874 167.872 49.551 167.111C52.5719 166.049 50.9521 165.254 47.7325 166.219C46.1296 166.699 44.5967 166.954 44.3257 166.785C44.0553 166.617 43.3646 167.002 42.7917 167.641C41.637 168.928 42.4629 169.212 44.1917 168.122C44.7862 167.748 45.7292 167.618 46.2882 167.835C47.2149 168.194 47.1799 168.395 45.8918 170.133C45.1155 171.181 43.9713 172.758 43.3506 173.638C41.9745 175.586 41.5333 175.636 40.2196 173.999C39.5242 173.132 38.8592 172.855 38.1423 173.133C37.1509 173.517 37.1474 173.585 38.0892 174.28C39.023 174.969 39.0014 175.136 37.7704 176.764L36.4509 178.508L37.7856 177.339C39.0754 176.211 39.1471 176.208 39.9025 177.25C41.0402 178.82 40.1519 180.64 37.4988 182.174C36.2492 182.896 35.0543 183.558 34.8434 183.645C34.6318 183.731 34.3695 184.331 34.2605 184.978C33.9767 186.655 35.4134 186.446 36.2807 184.684C36.6787 183.875 37.6026 183.127 38.334 183.021L39.6635 182.829L38.151 185.668C37.3193 187.229 35.9933 189.406 35.2041 190.506C34.4155 191.605 33.7697 192.994 33.7697 193.593C33.7697 194.193 33.5075 194.683 33.1869 194.683C32.8663 194.683 32.604 194.989 32.604 195.362C32.604 196.624 34.7728 194.084 37.493 189.636C38.9717 187.218 40.1852 184.784 40.1898 184.227C40.2079 182.043 42.4117 176.148 43.2749 175.974C43.7679 175.874 44.6067 175.123 45.1376 174.305C45.8901 173.146 46.4211 172.897 47.5384 173.18C48.4686 173.416 49.2974 173.216 49.8978 172.61C50.4066 172.097 51.1182 171.791 51.479 171.931C51.8404 172.071 52.4722 171.821 52.8843 171.377C53.5027 170.708 53.4293 170.568 52.4623 170.568ZM52.5917 141.608C52.4524 142.34 52.4576 143.398 52.6033 143.961C52.7491 144.523 52.8633 143.924 52.8569 142.63C52.8505 141.336 52.731 140.876 52.5917 141.608ZM51.4522 189.83C51.2902 190.235 51.2902 190.897 51.4522 191.301C51.6137 191.705 51.746 191.374 51.746 190.566C51.746 189.757 51.6137 189.426 51.4522 189.83ZM51.4009 201.152C51.1602 201.152 50.909 199.894 50.8414 198.358C50.7522 196.313 50.8583 195.88 51.2377 196.741C51.8818 198.202 51.9908 201.153 51.4009 201.152ZM50.2836 239.776C50.0703 239.56 49.5137 239.383 49.0468 239.383C48.3585 239.383 48.3351 239.55 48.9238 240.266C49.3231 240.751 49.8797 241.148 50.1606 241.148C50.7645 241.148 50.8373 240.334 50.2836 239.776ZM50.0895 315.551C49.7689 315.751 49.5067 315.634 49.5067 315.291C49.5067 314.949 49.7689 314.668 50.0895 314.668C50.4101 314.668 50.6724 314.785 50.6724 314.928C50.6724 315.071 50.4101 315.351 50.0895 315.551ZM48.7933 268.049C47.8823 269.028 47.6998 269.568 48.1795 269.867C48.6277 270.147 48.6755 270.591 48.3194 271.16C47.5355 272.41 47.6357 273.497 48.5351 273.497C49.4058 273.497 49.4414 275.335 48.5939 276.536C48.2891 276.967 47.5757 278.25 47.0074 279.387C46.4391 280.524 44.6469 282.906 43.0242 284.68C39.8279 288.177 38.4366 290.47 37.8829 293.156C37.6877 294.103 37.1683 294.998 36.7277 295.146C35.2904 295.63 36.5499 290.495 38.4588 288.089C39.4059 286.894 40.1811 285.471 40.1811 284.925C40.1811 284.379 41.1125 282.842 42.2502 281.508C45.4028 277.816 45.5276 277.625 45.2781 276.871C45.1475 276.474 44.5915 276.868 44.0034 277.773C43.4305 278.656 42.5982 279.379 42.154 279.379C41.7099 279.379 41.3468 279.902 41.3468 280.541C41.3468 281.181 40.6911 282.138 39.8897 282.668C39.0882 283.197 38.4325 283.965 38.4325 284.374C38.4325 284.782 38.0199 285.462 37.5157 285.884C36.2381 286.954 34.2354 291.062 34.6562 291.75C34.8474 292.062 34.7262 292.318 34.387 292.318C33.5914 292.318 33.5943 289.92 34.3934 287.798C34.7361 286.888 35.9817 284.687 37.1619 282.908C39.8302 278.883 40.5553 277.673 41.3112 275.986C41.6399 275.253 42.5037 274.423 43.2305 274.142C43.9574 273.862 45.077 273.028 45.7181 272.288L46.8838 270.945L45.7181 271.405C42.5061 272.674 42.3534 272.626 42.8132 270.495C43.5208 267.214 44.1835 265.851 45.0723 265.851C45.5345 265.851 46.016 266.165 46.143 266.549C46.2911 266.997 46.839 266.778 47.6701 265.94C49.9671 263.622 51.0401 265.636 48.7933 268.049ZM49.4595 332.607C49.5061 333.636 49.4192 347.635 49.3458 350.841C49.3312 351.488 49.4973 359.031 49.7147 367.604L50.1105 383.191L46.3884 387.235L42.6663 391.278L42.372 389.293C42.1272 387.641 42.4087 386.935 44.0436 385.099C45.1248 383.886 46.0002 382.694 45.9886 382.453C45.9769 382.211 45.334 382.796 44.5594 383.752C43.2678 385.347 43.1157 385.399 42.727 384.375C42.4589 383.67 42.576 383.169 43.0469 383.01C44.187 382.626 47.7581 379.321 47.7581 378.65C47.7581 377.937 44.75 379.805 44.0862 380.929C43.3139 382.239 42.3394 381.847 42.759 380.396C42.9694 379.668 43.2568 378.543 43.3972 377.896C43.5383 377.249 44.1835 376.281 44.8316 375.744C46.3371 374.495 46.3634 373.84 44.8701 374.781C44.2435 375.176 43.5237 375.289 43.2696 375.033C42.8354 374.595 45.5975 371.758 48.0903 370.082C49.1185 369.39 49.0771 369.353 47.6124 369.652C46.3849 369.902 46.0096 369.753 46.0096 369.016C46.0096 368.344 45.6587 368.147 44.8445 368.361C41.9448 369.127 43.2976 365.944 46.5505 364.347C47.7144 363.776 48.3031 363.207 47.8852 363.057C47.4743 362.909 46.4997 363.209 45.7199 363.725C44.94 364.241 44.1835 364.663 44.0384 364.663C43.6508 364.663 44.0384 360.574 44.4673 360.141C44.669 359.938 44.5705 359.451 44.2482 359.06C43.8315 358.552 44.2097 357.792 45.5649 356.418C46.6793 355.287 47.0441 354.638 46.4467 354.851C45.038 355.354 45.1691 354.364 46.7026 352.922C48.2559 351.461 47.4463 351.307 45.8108 352.752C44.7244 353.712 44.6708 353.714 45.0111 352.771C45.2116 352.215 45.1079 351.593 44.7803 351.389C44.3968 351.15 44.4738 350.672 44.9954 350.047C45.4413 349.513 45.872 348.15 45.9519 347.018C46.2742 342.479 46.5289 340.74 47.2009 338.489C47.5873 337.195 47.9429 333.969 47.9913 331.318C48.0396 328.668 48.2693 326.308 48.5012 326.074C48.7338 325.839 48.9547 325.096 48.9926 324.422C49.0392 323.597 49.1844 323.773 49.4373 324.961C49.6436 325.932 49.7206 327.785 49.6087 329.079C49.4967 330.372 49.4297 331.961 49.4595 332.607ZM48.584 241.782C47.905 241.811 47.7669 241.95 48.2314 242.138C48.6522 242.308 49.1552 242.286 49.3487 242.091C49.5422 241.896 49.1983 241.757 48.584 241.782ZM45.7514 70.0711C42.7025 70.1422 41.7653 70.6328 43.0953 71.4621C43.4159 71.6621 44.0057 71.6215 44.4062 71.3715C44.8072 71.1215 45.8301 70.991 46.6799 71.081C47.5302 71.1709 48.3975 70.9633 48.6079 70.6198C48.862 70.2052 47.9033 70.0211 45.7514 70.0711ZM47.2936 157.628C46.1157 157.628 45.2589 157.974 45.045 158.536C44.5216 159.913 44.9441 159.953 47.166 158.738L49.1972 157.628L47.2936 157.628ZM48.0012 248.84C47.3221 248.869 47.184 249.008 47.6485 249.196C48.0694 249.366 48.5724 249.344 48.7659 249.149C48.9594 248.954 48.6155 248.815 48.0012 248.84ZM47.1957 57.052C46.8862 57.052 45.6972 56.2227 44.553 55.2093C42.0754 53.0137 41.2273 53.3525 43.1728 55.7604C44.8363 57.8196 47.7581 59.1724 47.7581 57.8831C47.7581 57.4261 47.5052 57.052 47.1957 57.052ZM47.1409 149.394C46.8017 149.394 46.6857 149.659 46.8838 149.982C47.082 150.306 47.3594 150.57 47.5011 150.57C47.6427 150.57 47.7581 150.306 47.7581 149.982C47.7581 149.659 47.4801 149.394 47.1409 149.394ZM46.8541 359.756C45.9321 360.113 45.6919 361.134 46.5301 361.134C46.8162 361.134 47.1963 360.75 47.3746 360.281C47.5914 359.711 47.4189 359.537 46.8541 359.756ZM45.179 65.8104C43.9137 65.3487 43.0953 64.6617 43.0953 64.0606C43.0953 62.8655 40.6963 62.2855 38.5118 62.9519C37.0407 63.4007 37.0337 63.423 38.3393 63.4713C39.0894 63.4989 40.1385 64.0124 40.6707 64.6111C41.626 65.6869 46.4444 67.3961 46.9841 66.8515C47.1374 66.6968 46.3249 66.2286 45.179 65.8104ZM45.1977 99.3999C44.4306 99.3999 43.6549 99.7887 43.4748 100.263C43.051 101.377 43.733 101.782 45.3253 101.361C47.0488 100.907 46.9503 99.3999 45.1977 99.3999ZM45.4267 63.2278C45.1062 63.0278 44.8439 63.1448 44.8439 63.4871C44.8439 63.8295 45.1062 64.11 45.4267 64.11C45.7473 64.11 46.0096 63.9936 46.0096 63.8506C46.0096 63.7077 45.7473 63.4277 45.4267 63.2278ZM44.4196 72.7549C43.5307 72.579 42.5544 72.679 42.2502 72.9778C41.9028 73.3183 41.957 73.5207 42.3959 73.5207C42.7806 73.5207 43.0953 74.05 43.0953 74.697C43.0953 75.7875 42.7952 75.9145 40.3268 75.8645C40.0861 75.8598 39.625 75.0622 39.3016 74.0924C38.7234 72.3596 38.6884 72.3461 37.2616 73.3183C36.4631 73.8618 35.7176 74.3776 35.6046 74.4641C35.4915 74.5505 35.8196 75.2263 36.3331 75.9663C36.8466 76.7062 37.2668 77.719 37.2668 78.2166C37.2668 78.9059 37.9284 79.1206 40.0354 79.1153C42.8814 79.1082 44.5047 78.5118 43.9853 77.6637C43.8233 77.3996 44.0786 76.8585 44.5525 76.4615C45.0263 76.0645 45.263 75.494 45.0788 75.1928C44.8946 74.8917 45.0345 74.2917 45.3894 73.86C45.8965 73.2436 45.6873 73.0054 44.4196 72.7549ZM45.6068 153.52C45.3475 153.525 44.7419 153.786 44.261 154.099C43.5074 154.59 43.5231 154.67 44.3724 154.679C44.9144 154.683 45.52 154.423 45.7182 154.099C45.9163 153.776 45.8662 153.515 45.6068 153.52ZM45.295 164.273C43.7895 163.096 42.6063 163.018 41.693 164.037C40.3868 165.493 40.4731 165.579 43.1338 165.48C45.8452 165.379 46.3494 165.097 45.295 164.273ZM45.112 293.953C44.2872 295.622 44.0774 295.721 42.5311 295.177C40.9254 294.613 38.9198 291.142 40.1997 291.142C40.497 291.142 41.2757 290.083 41.9296 288.789C42.5836 287.495 43.3763 286.437 43.6898 286.437C44.451 286.437 44.4388 286.501 43.1081 289.46C41.8096 292.348 41.5653 294.891 42.6197 294.537C42.9997 294.409 43.7493 292.998 44.2855 291.4C45.0245 289.201 45.3358 288.781 45.5678 289.671C46.0848 291.656 46.0405 292.075 45.112 293.953ZM44.3461 93.1683C43.6578 93.7847 43.0953 94.5282 43.0953 94.8205C43.0953 95.6486 44.1824 94.7681 44.9255 93.3383C45.5917 92.0567 45.5876 92.0555 44.3461 93.1683ZM43.5604 257.616C43.1979 257.616 43.0697 257.786 43.2754 257.995C43.4817 258.202 44.05 258.038 44.5385 257.628C45.2653 257.019 45.4267 257.041 45.4267 257.744C45.4267 258.217 44.771 258.906 43.9696 259.274C42.773 259.824 42.5125 259.789 42.5125 259.074C42.5125 258.596 42.1191 258.205 41.6382 258.205C40.2499 258.205 40.6165 257.214 42.5084 255.855C44.528 254.403 45.7502 254.731 44.8252 256.476C44.4924 257.103 43.923 257.616 43.5604 257.616ZM43.8291 67.639C43.1425 67.639 42.4192 67.3743 42.2211 67.0508C41.6848 66.1757 39.1867 66.3398 38.8318 67.2738C38.6056 67.8678 39.2514 68.1695 41.2465 68.403C42.7445 68.5783 44.2191 68.4783 44.5233 68.1801C44.866 67.8455 44.6014 67.639 43.8291 67.639ZM43.1711 244.452C41.9838 243.368 41.102 243.936 41.6668 245.422C41.9961 246.289 41.018 246.821 36.5499 248.204C34.7751 248.754 34.148 248.716 33.1338 247.999L31.8918 247.121L33.1222 246.345C34.9931 245.166 34.6207 244.833 31.5841 244.969C29.9649 245.041 27.9686 245.615 26.7755 246.352C24.334 247.862 23.6118 247.945 24.0991 246.664C24.3777 245.931 24.19 245.783 23.2872 246.021C22.6414 246.192 22.1128 246.234 22.1128 246.116C22.1128 245.499 25.5673 242.686 27.2127 241.964C29.5866 240.921 29.663 240.343 27.3584 240.854C24.7134 241.44 25.1966 240.158 28.1709 238.7C30.5775 237.521 33.0791 237.544 32.347 238.739C32.1651 239.036 33.0662 239.458 34.3503 239.677C35.6337 239.896 36.684 240.316 36.684 240.611C36.684 240.907 37.1182 241.148 37.6486 241.148C38.5159 241.148 38.5071 241.266 37.5583 242.324C36.5243 243.478 36.54 243.5 38.3812 243.5C39.9042 243.5 40.1986 243.306 39.938 242.471C39.6997 241.707 40.1764 241.189 41.7932 240.457L43.9696 239.473L40.6182 239.803C37.7693 240.084 37.2668 239.989 37.2668 239.17C37.2668 238.535 36.7708 238.207 35.8097 238.207C35.0083 238.207 33.828 237.678 33.1869 237.031C32.5458 236.384 31.7915 235.854 31.5106 235.854C30.1683 235.854 24.5724 238.846 23.2785 240.256C22.477 241.129 19.9731 243.249 17.714 244.968C12.033 249.289 7.87783 255.463 12.1519 253.233C13.0844 252.746 13.9366 252.144 14.0461 251.894C14.1551 251.645 15.0871 250.844 16.117 250.116C17.9745 248.802 17.9955 248.8 18.6145 249.969C19.2632 251.191 21.4681 251.554 22.4333 250.598C23.3839 249.656 29.8425 246.4 30.1485 246.708C30.3082 246.869 30.1176 247.392 29.7248 247.869C29.3319 248.347 29.1815 249.28 29.3896 249.943C29.691 250.9 30.0809 251.07 31.2769 250.767C32.7276 250.4 32.7719 250.464 32.4467 252.485C32.0742 254.8 32.6274 255.321 34.978 254.867C35.7619 254.716 36.7172 253.922 37.1007 253.102C37.8334 251.535 37.5414 251.465 34.8871 252.576C34.1632 252.878 33.9638 252.575 33.9638 251.172C33.9638 249.72 34.2063 249.382 35.2461 249.382C36.7271 249.382 42.4472 247.162 43.5505 246.159C44.1503 245.614 44.0757 245.278 43.1711 244.452ZM42.379 193.506C42.0375 193.506 42.094 193.133 42.5125 192.624C42.9117 192.139 43.3291 191.742 43.4398 191.742C43.5505 191.742 43.4905 192.139 43.3063 192.624C43.1216 193.109 42.7042 193.506 42.379 193.506ZM41.8393 90.9657C41.0874 90.7704 40.0488 89.8493 39.5306 88.9194C38.3375 86.7761 34.7093 85.9521 33.068 87.4514C31.6791 88.72 31.7304 89.5999 33.1484 88.8336C34.9086 87.8831 35.5148 88.1054 35.3883 89.6529C35.3236 90.4381 35.094 90.9704 34.8777 90.8357C34.6615 90.701 34.2063 90.9286 33.8659 91.3427C33.3827 91.9302 33.7692 92.1155 35.6378 92.1908C36.9527 92.2437 38.2367 92.4978 38.492 92.7554C39.2532 93.5248 36.4235 99.7287 33.93 102.757C29.9474 107.594 29.3162 109.712 30.6655 113.721C31.7181 116.849 34.0373 118.559 39.6862 120.372C40.8333 120.74 41.6172 118.044 41.039 115.718C40.8001 114.757 41.1072 113.378 41.9174 111.776C42.6028 110.42 43.0586 109 42.9298 108.619C42.8016 108.239 42.0963 109.119 41.3631 110.575C40.6293 112.031 39.6699 113.434 39.231 113.692C38.1586 114.324 38.2128 115.869 39.3068 115.869C40.307 115.869 40.3979 116.376 39.6204 117.617C39.1559 118.358 39.023 118.337 38.6931 117.47C38.4809 116.913 37.9424 116.457 37.4959 116.457C37.0494 116.457 36.684 116.068 36.684 115.593C36.684 115.035 36.3465 114.86 35.7305 115.099C35.0742 115.353 34.862 115.209 35.0503 114.639C35.2006 114.183 35.6955 113.808 36.1495 113.805C36.6228 113.803 37.0022 113.175 37.0384 112.335C37.1421 109.931 37.2121 109.743 38.5783 108.193C39.2998 107.375 40.4102 106.054 41.046 105.258C41.9693 104.104 41.823 104.159 40.3239 105.533C38.2798 107.405 36.9999 107.204 38.724 105.282C39.308 104.63 39.6052 103.916 39.3849 103.694C38.8394 103.144 34.8375 107.371 34.9914 108.335C35.1394 109.262 33.4183 113.302 32.6798 113.763C31.9752 114.202 31.4057 111.035 32.0486 110.25C32.3272 109.91 32.4205 109.112 32.2561 108.478C32.0451 107.663 32.8034 106.409 34.8335 104.216C36.4153 102.506 38.7117 99.0694 39.9363 96.5779C41.1614 94.0865 42.3982 91.8844 42.685 91.6844C42.9718 91.4844 42.5912 91.1615 41.8393 90.9657ZM42.1727 242.371C41.4937 242.399 41.3555 242.538 41.8201 242.726C42.2409 242.896 42.7439 242.875 42.9374 242.679C43.1309 242.484 42.787 242.345 42.1727 242.371ZM41.4645 159.76C40.687 159.276 39.7993 160.186 39.3855 161.893C38.9326 163.759 39.5778 163.981 40.965 162.434C42.0083 161.271 42.2042 160.222 41.4645 159.76ZM39.5982 265.557C39.2777 265.757 39.0195 266.368 39.0241 266.915C39.0323 267.772 39.1116 267.788 39.5982 267.027C40.3361 265.875 40.3361 265.097 39.5982 265.557ZM38.2868 70.0311C37.268 70.0064 36.684 69.6699 36.684 69.1094C36.684 68.2037 35.1622 67.9507 33.5261 68.5842C32.4397 69.0047 32.2701 71.7679 33.3326 71.7303C33.733 71.7162 35.3726 71.3368 36.9754 70.8874C39.1285 70.2846 39.4712 70.0605 38.2868 70.0311ZM39.0154 296.435C38.6948 296.435 38.4325 295.758 38.4325 294.93C38.4325 294.077 38.6849 293.582 39.0154 293.789C39.3359 293.989 39.5982 294.666 39.5982 295.294C39.5982 295.922 39.3359 296.435 39.0154 296.435ZM35.9234 64.5741C35.2199 64.4653 34.7099 64.0518 34.7897 63.6548C35.0176 62.5261 30.898 62.7261 30.465 63.8648C29.86 65.4563 32.0142 66.945 34.4587 66.6244C36.8985 66.305 37.915 64.8817 35.9234 64.5741ZM34.8538 60.7239C33.7767 60.4428 32.8955 59.8417 32.8955 59.3894C32.8955 58.2831 29.2737 57.2367 28.4215 58.0966C27.1556 59.3741 28.4466 60.3634 32.3214 61.0839C36.4421 61.8497 38.2029 61.5997 34.8538 60.7239ZM34.8259 55.6893C34.3613 55.5016 34.4995 55.3622 35.1785 55.334C35.7928 55.3087 36.1367 55.4475 35.9432 55.6428C35.7497 55.8381 35.2467 55.8592 34.8259 55.6893ZM33.0674 50.1711C30.0966 50.5728 29.1268 50.1035 30.6218 48.9859C31.7094 48.1719 31.7088 48.1413 30.5985 47.3108C29.5085 46.4962 29.5074 46.4651 30.5623 46.4651C31.6663 46.4651 35.5066 48.8001 35.5142 49.4753C35.5166 49.6753 34.4156 49.9882 33.0674 50.1711ZM33.7552 98.2236C33.427 98.2236 32.9025 98.9024 32.5895 99.7323C31.777 101.889 31.8726 102.071 33.1869 100.87C34.4255 99.7393 34.7507 98.2236 33.7552 98.2236ZM32.7498 188.33C30.015 189.675 29.1845 190.326 28.0229 192.037C26.374 194.465 26.7493 195.476 28.9811 194.619C31.3055 193.728 32.6682 192.284 32.2969 191.104C32.1191 190.539 32.2468 189.906 32.5802 189.698C33.2668 189.27 33.4241 187.998 32.7498 188.33ZM31.4634 197.345C31.1562 197.154 30.5017 197.785 30.008 198.748C28.9268 200.858 29.8 201.738 31.1073 199.855C32.1652 198.331 32.2368 197.828 31.4634 197.345ZM30.6952 192.374C29.9981 192.301 30.1333 191.495 30.8846 191.242C31.2693 191.113 31.4791 191.324 31.3509 191.712C31.2227 192.101 30.9278 192.398 30.6952 192.374ZM31.274 241.747C30.2732 241.722 27.0198 243.376 26.2673 244.292C25.8272 244.827 25.6314 245.265 25.8319 245.265C26.3792 245.265 31.8015 241.76 31.274 241.747ZM30.8304 302.317C29.6274 302.317 23.8613 307.729 23.8613 308.858C23.8613 309.466 24.0577 309.955 24.2984 309.944C25.5475 309.891 32.0334 302.317 30.8304 302.317ZM28.3493 103.517C26.6409 103.517 25.6099 104.558 25.6099 106.281C25.6099 107.901 25.808 107.93 27.9972 106.625C30.0687 105.39 30.2808 103.517 28.3493 103.517ZM28.6022 288.544C27.778 288.03 26.2242 290.189 25.0148 293.529C23.8065 296.864 23.8153 297.237 25.0894 296.725C27.433 295.782 30.1316 289.497 28.6022 288.544ZM27.0151 298.494C26.2084 299.464 25.1407 301.052 24.6429 302.023C24.1446 302.993 22.3879 305.196 20.739 306.918C17.7933 309.994 17.7705 310.044 19.4311 309.858C20.3607 309.754 21.4098 309.15 21.7625 308.515C22.1157 307.88 23.7815 305.331 25.4641 302.85C28.6092 298.214 29.6292 295.35 27.0151 298.494ZM26.6642 115.877C26.2446 115.883 25.5079 116.143 25.027 116.457C24.3165 116.92 24.3917 117.028 25.4298 117.036C26.1321 117.041 26.8688 116.78 27.067 116.457C27.2651 116.133 27.0839 115.873 26.6642 115.877ZM26.2743 110.332C25.9549 110.133 24.5258 110.765 23.0984 111.737C20.3631 113.6 19.2568 115.703 20.7151 116.267C21.6162 116.616 26.1927 113.859 26.1927 112.968C26.1927 112.675 26.3419 112.044 26.5238 111.565C26.7062 111.086 26.5937 110.531 26.2743 110.332ZM25.8407 46.3057C25.6472 46.1104 25.6262 45.6028 25.7946 45.1787C25.9805 44.7094 26.1187 44.8488 26.1467 45.534C26.1717 46.1539 26.0342 46.5009 25.8407 46.3057ZM25.4006 198.212C24.6767 198.212 19.4491 202.422 18.5084 203.763C17.5083 205.189 18.9555 205.156 21.6185 203.694C24.9256 201.878 27.4546 198.212 25.4006 198.212ZM24.9693 205.27C24.2594 205.27 19.4048 210.267 18.5405 211.887C17.3876 214.049 19.568 212.875 21.8173 210.122C23.0727 208.585 24.4395 207.117 24.8551 206.858C25.776 206.284 25.8488 205.27 24.9693 205.27ZM24.2984 120.356C22.3109 121.557 18.6157 125.03 18.6157 125.698C18.6157 127.15 19.9836 126.437 22.4969 123.675C24.9576 120.97 25.7748 119.465 24.2984 120.356ZM22.987 114.692C22.5062 114.692 22.1128 114.428 22.1128 114.104C22.1128 113.781 22.5062 113.516 22.987 113.516C23.4679 113.516 23.8613 113.781 23.8613 114.104C23.8613 114.428 23.4679 114.692 22.987 114.692ZM22.8413 312.322C21.981 312.335 16.8671 317.499 16.8671 318.356C16.8671 318.836 17.2267 319.531 17.6668 319.9C18.3015 320.431 18.6162 320.204 19.1944 318.795C19.5949 317.819 20.1317 317.021 20.3875 317.021C20.8532 317.021 23.2785 313.386 23.2785 312.688C23.2785 312.483 23.082 312.319 22.8413 312.322ZM19.6799 246.441C18.5405 246.441 19.3302 244.597 20.6935 244.074C22.9142 243.222 23.0366 243.353 21.5299 244.971C20.7769 245.78 19.9446 246.441 19.6799 246.441ZM22.0591 295.259C20.9162 295.259 18.7864 297.322 15.751 301.369C13.2791 304.664 12.9958 305.274 14.0904 304.94C14.8161 304.718 15.5679 304.369 15.7609 304.163C19.3192 300.362 22.6956 296.315 22.6956 295.852C22.6956 295.526 22.4088 295.259 22.0591 295.259ZM20.152 118.221C18.7445 118.221 17.6108 118.735 16.3064 119.965L14.457 121.708L15.9118 122.076C17.9734 122.598 19.3757 122.004 20.8591 119.98L22.1477 118.221L20.152 118.221ZM19.0528 303.878C17.6907 305.142 15.7137 306.535 14.6593 306.974C12.6782 307.799 12.434 308.936 14.1644 309.274C14.756 309.39 16.4364 308.153 18.3417 306.199C22.0935 302.352 22.6484 300.541 19.0528 303.878ZM16.9347 217.306C14.6943 217.59 9.92014 221.15 11.78 221.15C12.2556 221.15 12.9708 220.753 13.37 220.268C14.1435 219.327 15.7014 219.062 15.7014 219.871C15.7014 220.139 15.0218 220.998 14.1907 221.783C13.3601 222.567 12.4241 223.688 12.1117 224.274C11.5783 225.271 11.6465 225.284 13.1847 224.473C15.2159 223.403 17.5899 220.797 18.4956 218.645L19.1787 217.022L16.9347 217.306ZM16.7634 128.449C16.2091 128.104 15.2334 128.792 11.836 131.926C10.3107 133.333 9.83097 133.498 8.92173 132.928C8.13546 132.437 7.38708 132.419 6.23012 132.866C4.97 133.352 4.62729 133.865 4.62729 135.263C4.62729 137.348 5.69973 137.595 7.25011 135.866C7.83004 135.219 8.52655 134.69 8.79757 134.69C9.7208 134.69 9.29358 136.19 8.06901 137.248C7.39757 137.828 7.01056 138.468 7.20989 138.668C7.40864 138.869 9.76394 136.73 12.4439 133.913C15.1232 131.098 17.067 128.639 16.7634 128.449ZM16.2843 203.537C15.8034 203.537 14.492 204.317 13.37 205.27C12.1723 206.287 11.6908 207.002 12.2043 207.002C12.6852 207.002 13.9966 206.223 15.1186 205.27C16.3163 204.252 16.7978 203.537 16.2843 203.537ZM16.5635 207.034C15.7102 207.034 11.6856 210.192 11.9624 210.644C12.297 211.19 16.8327 208.252 16.8549 207.475C16.8613 207.232 16.7301 207.034 16.5635 207.034ZM16.4078 210.661C16.1549 210.769 14.8102 212.114 13.419 213.651C10.4033 216.982 11.5469 217.482 14.7088 214.215C16.6322 212.227 17.6301 210.14 16.4078 210.661ZM15.1098 314.085C12.9912 315.23 9.92363 321.172 11.4758 321.125C12.5354 321.094 14.513 318.893 15.361 316.802C16.5716 313.816 16.5261 313.32 15.1098 314.085ZM15.396 124.579C14.7152 123.892 12.1058 124.926 11.0252 126.312C8.47525 129.583 10.3509 130.486 13.641 127.571C15.663 125.78 16.0063 125.195 15.396 124.579ZM11.1284 212.328C10.8346 212.328 9.84144 213.103 8.92229 214.052C8.00256 215 6.52854 216.052 5.64727 216.39C4.13011 216.971 3.2774 219.386 4.5894 219.386C5.91713 219.386 8.12438 218.166 8.12438 217.433C8.12438 216.989 8.67341 216.126 9.34427 215.513C10.8492 214.139 11.8634 212.328 11.1284 212.328ZM11.1097 312.316C10.1661 312.316 9.09948 314.124 8.74977 316.316C8.44144 318.247 8.19198 318.512 6.52912 318.675C4.68382 318.855 3.49131 320.035 1.73402 323.421C1.01945 324.798 1.04217 324.815 3.10895 324.424C4.55791 324.149 5.21013 324.241 5.21013 324.72C5.21013 325.505 2.84084 327.86 1.11152 328.794C-0.445848 329.636 -0.344425 331.121 1.2759 331.205C4.04734 331.348 4.97058 331.018 6.52154 329.332C8.31788 327.379 8.61804 324.867 7.1819 323.807C6.31637 323.169 6.32279 322.946 7.26059 321.096C7.82246 319.987 8.62271 318.878 9.03828 318.631C10.6953 317.649 12.445 312.316 11.1097 312.316ZM8.37093 209.387C7.33579 209.387 4.04443 212.485 4.04443 213.459C4.04443 214.599 5.49748 214.125 7.41156 212.361C9.45852 210.474 9.8094 209.387 8.37093 209.387ZM6.55418 226.819C5.89789 226.157 5.21013 226.417 5.21013 227.326C5.21013 227.811 5.45668 228.208 5.7586 228.208C6.49357 228.208 7.01988 227.289 6.55418 226.819ZM5.2247 229.389C4.83361 228.764 4.49614 228.693 4.04968 229.144C3.30305 229.897 3.92029 231.877 4.80855 231.578C5.69448 231.28 5.86117 230.406 5.2247 229.389ZM1.97182 225.96C0.974567 226.17 0.723943 227.189 1.59763 227.483C1.90246 227.586 2.31453 227.242 2.51328 226.72C2.76274 226.065 2.59489 225.829 1.97182 225.96Z" fill="#D9D9E0" fill-opacity="0.1"/>
</svg>
