<svg width="307" height="577" viewBox="0 0 307 577" fill="none" xmlns="http://www.w3.org/2000/svg">
<path fill-rule="evenodd" clip-rule="evenodd" d="M171.5 1.11612C173.15 1.85412 174.88 2.22411 175.343 1.93711C176.399 1.28711 188.319 3.72212 189.002 4.72812C189.279 5.13512 191.304 5.80411 193.502 6.21611C197.101 6.89011 197.367 6.80512 196.169 5.35812C194.709 3.59512 183.908 1.06212 174.5 0.275116C168.846 -0.196884 168.673 -0.148884 171.5 1.11612ZM116.167 1.66412C110.572 2.15112 107.297 2.92512 106.202 4.02012C104.694 5.52812 104.847 5.65112 108.227 5.65112C110.237 5.65112 112.16 5.20112 112.5 4.65112C112.84 4.10112 114.554 3.60811 116.309 3.55511C120.179 3.43911 130.541 0.878117 127 0.913117C125.625 0.927117 120.75 1.26512 116.167 1.66412ZM95.984 7.67012C94.068 8.78012 90.925 10.3661 89 11.1951C87.075 12.0241 84.825 13.0681 84 13.5161C75.324 18.2291 67.755 22.7991 60.386 27.7751C54.261 31.9101 36.703 50.5901 33.243 56.6511C20.147 79.5891 12.817 103.787 11.038 129.951C10.157 142.9 11.646 157.3 15.35 171.651C17.255 179.032 20.958 188.803 22.551 190.651C23.262 191.476 24.162 193.501 24.55 195.151C25.176 197.815 28.864 204.288 33.951 211.651C37.022 216.096 39.161 221.435 38.826 223.822C38.536 225.896 38.948 226.184 42.596 226.451C45.98 226.699 47.177 227.394 49.485 230.451C51.021 232.486 54.732 235.951 57.731 238.151C60.73 240.351 64.631 243.359 66.399 244.836C70.922 248.612 83.285 256.647 84.576 256.649C85.167 256.65 86.708 257.776 88 259.151C89.292 260.526 91.2 261.651 92.24 261.651C93.28 261.651 94.988 262.109 96.034 262.669C97.608 263.512 97.765 264.139 96.943 266.3C94.964 271.505 91.993 274.651 89.054 274.651C87.509 274.651 85.672 275.341 84.972 276.184C83.261 278.247 82.444 287.189 83.885 288.08C85.865 289.304 85.109 295.402 82.5 299.246C81.125 301.272 80 303.69 80 304.619C80 306.655 84.951 314.317 88.298 317.462C90.451 319.484 91.174 319.622 95.041 318.753C98.718 317.927 99.783 318.072 102.091 319.715C103.586 320.78 105.153 321.651 105.574 321.651C105.995 321.651 109.37 324.576 113.073 328.151C116.776 331.726 120.68 334.651 121.748 334.651C122.816 334.651 124.505 335.551 125.5 336.651C127.447 338.802 130 339.328 130 337.578C130 336.987 130.765 336.652 131.7 336.832C133.017 337.085 133.669 339.033 134.585 345.449C135.237 350.009 136.436 354.507 137.251 355.445C138.066 356.383 139.003 359.57 139.334 362.527C140.265 370.849 144.736 376.101 147.578 372.213C148.987 370.286 151 370.896 151 373.25C151 375.733 154.655 381.905 158.937 386.651C161.707 389.721 162.998 392.069 162.999 394.04C162.999 395.63 164.272 399.005 165.826 401.54C169.965 408.293 170.258 410.399 167.706 415.092C166.493 417.325 164.934 419.513 164.243 419.955C163.552 420.397 162.082 422.53 160.977 424.696C159.059 428.455 157.376 429.187 154.5 427.51C153.95 427.19 152.15 426.615 150.5 426.232C148.85 425.85 146.15 424.03 144.5 422.189L141.5 418.84L134.671 420.292C128.304 421.646 127.118 421.598 117.171 419.581C111.302 418.391 104.025 417.235 101 417.011C87.834 416.037 81.64 415.788 83.5 416.308C84.6 416.615 86.035 417.3 86.69 417.831C87.344 418.362 91.374 419.06 95.645 419.383C102.041 419.867 103.833 420.393 105.805 422.365C108.016 424.576 108.295 424.629 109.442 423.061C110.585 421.498 110.817 421.551 112.342 423.729C113.254 425.031 114.003 426.783 114.006 427.624C114.01 428.464 114.685 430.44 115.506 432.015C117.206 435.274 117.515 443.215 115.979 444.164C114.748 444.925 112 438.724 112 435.183C112 431.049 110.31 432.304 109.688 436.901C109.3 439.764 109.584 441.874 110.556 443.366C112.311 446.057 112.447 451.804 110.796 453.455C110.134 454.117 109.698 456.232 109.827 458.155C110.179 463.386 108.016 462.616 101.497 455.191C94.739 447.493 92.749 446.599 89.391 449.753C87.275 451.741 87.161 452.162 88.531 452.929C89.4 453.415 90.584 455.014 91.162 456.482C92.447 459.746 92.293 482.764 90.953 487.792C90.386 489.916 87.131 494.731 83.135 499.355C77.623 505.735 76.04 508.337 75.014 512.715C74.312 515.705 73.41 518.601 73.01 519.151C72.609 519.701 71.515 522.176 70.578 524.651C68.841 529.239 64.478 535.462 63.607 534.592C63.343 534.327 63.032 527.692 62.917 519.846C62.773 509.967 62.369 505.694 61.604 505.947C60.909 506.176 60.315 511.146 60 519.361C59.434 534.143 59.579 535.651 61.573 535.651C63.238 535.651 63.608 542.157 62 543.151C60.449 544.11 60.82 549.982 62.664 553.68C63.58 555.515 64.533 559.14 64.782 561.735C65.155 565.613 64.902 566.628 63.368 567.425C60.347 568.995 53.254 569.705 40.047 569.761C30.159 569.803 26.65 570.212 22.648 571.79C17.913 573.656 9.926 573.671 10.041 571.813C10.064 571.449 12.346 570.088 15.113 568.79C17.88 567.491 20.596 565.466 21.148 564.29C22.356 561.718 29.352 557.085 33.507 556.106C37.422 555.183 43.673 549.19 45.975 544.151C46.981 541.951 48.109 537.001 48.482 533.151C49.337 524.33 49.812 522.651 51.451 522.651C53.312 522.651 53.864 519.958 55.141 504.651C55.76 497.226 56.591 490.926 56.987 490.651C58.069 489.9 60.299 476.944 59.554 475.739C58.329 473.756 61.257 466.869 65.124 462.638C69.334 458.033 69.49 457.598 68 454.637C67.45 453.545 66.55 451.757 66 450.665C65.45 449.572 65 447.527 65 446.119C65 443.333 69.01 438.651 71.396 438.651C72.213 438.651 73.149 438.219 73.475 437.692C74.367 436.248 71.758 432.651 69.818 432.651C64.808 432.651 67.137 427.332 74.702 421.495C77.644 419.225 79.85 417.168 79.605 416.923C79.36 416.678 76.986 417.561 74.33 418.884C64.455 423.806 59.115 435.627 58.852 453.151C58.769 458.651 58.157 464.501 57.491 466.151C56.826 467.801 55.705 470.501 55.001 472.151C53.606 475.42 51.993 481.697 51.532 485.651C51.371 487.026 50.998 488.826 50.701 489.651C49.944 491.76 48 508.538 48 512.969C48 514.997 47.502 516.651 46.892 516.651C46.216 516.651 46.022 517.603 46.395 519.09C46.732 520.431 46.608 521.775 46.121 522.076C45.633 522.378 44.698 526.343 44.043 530.888C43.389 535.433 42.132 540.276 41.252 541.651C38.327 546.217 30.176 554.123 26.311 556.141C24.215 557.236 22.275 558.361 22 558.641C19.709 560.977 9.661 564.616 5.45 564.636C1.522 564.655 0 566.248 0 570.338C0 573.178 0.509 573.846 3.75 575.26C8.687 577.414 25.191 577.331 28.324 575.137C29.979 573.977 33.857 573.651 45.983 573.651C61.327 573.651 61.555 573.619 64.322 571.053C69.298 566.439 70.356 560.644 67 556.378C65.503 554.475 65 552.321 65 547.813C65 541.644 65.079 541.423 74.475 521.151C76.259 517.301 78.005 512.955 78.355 511.493C78.705 510.031 81.749 505.117 85.118 500.573C93.684 489.02 94 488.011 94 472.218C94 460.38 94.215 458.609 95.75 457.804C98.426 456.402 101.086 457.919 105.824 463.548C108.203 466.374 112.028 469.643 114.324 470.813C116.621 471.983 119.875 473.986 121.555 475.265C123.235 476.544 126.835 478.568 129.555 479.763C132.275 480.958 134.831 482.434 135.235 483.043C135.639 483.652 135.976 487.716 135.985 492.073C135.997 498.219 136.582 501.468 138.597 506.573C140.025 510.191 141.785 513.77 142.509 514.527C143.968 516.054 143.139 517.95 137.147 526.796C135.416 529.351 134 531.971 134 532.618C134 533.265 132.819 535.81 131.375 538.274C129.378 541.682 128.87 543.645 129.251 546.484C130.024 552.248 133.807 559.793 137.842 563.617L141.5 567.084L159 567.117C172.29 567.143 177.099 566.811 178.99 565.737C180.45 564.909 185.5 564.13 191.192 563.856C199.038 563.478 200.987 563.077 201.336 561.77C201.705 560.388 201.785 560.408 201.884 561.901C201.98 563.353 202.987 563.651 207.8 563.651C211.043 563.651 214.14 564.191 214.825 564.876C215.792 565.843 216.519 565.79 218.275 564.626C220.026 563.465 225.185 563.084 242.5 562.836C254.711 562.661 264.933 562.095 265.473 561.563C266.008 561.036 266.307 558.99 266.137 557.016C265.909 554.375 266.18 553.543 267.164 553.867C267.899 554.109 268.644 555.285 268.82 556.479C269.239 559.328 269.554 559.258 274.481 555.22C278.016 552.323 279.001 550.65 280.812 544.47C282.998 537.007 282.996 536.938 280.423 525.703C279.996 523.837 279.658 523.587 279.001 524.649C278.51 525.443 278.54 526.791 279.07 527.781C279.581 528.737 280 532.448 280 536.026C280 542.749 279.287 544.05 275.5 544.235C274.4 544.289 271.506 544.517 269.068 544.742C264.638 545.151 264.636 545.15 262.068 540.17C260.194 536.536 259.534 533.793 259.627 530.021C259.749 525.039 259.644 524.83 256.752 524.251C251.716 523.244 247.554 523.575 245.288 525.162C241.789 527.612 241.487 524.953 244.935 522.052C251.028 516.925 246.682 515.45 239.866 520.332C237.317 522.157 234.779 523.651 234.226 523.651C233.673 523.651 230.596 526.233 227.389 529.39C224.016 532.709 220.839 535.006 219.853 534.839C218.915 534.68 215.716 535.923 212.743 537.601C209.77 539.278 206.743 540.651 206.016 540.651C205.288 540.651 202.175 541.885 199.096 543.394C193.519 546.127 193.511 546.138 196.75 546.457C199.92 546.77 201.449 548.651 198.534 548.651C196.726 548.651 189.623 551.873 189.167 552.901C188.983 553.313 187.022 553.651 184.808 553.651C181.264 553.651 180.152 554.292 175.498 559.022C171.11 563.48 169.388 564.534 165.356 565.228C156.504 566.752 153 565.437 153 560.588C153 557.832 152.939 557.802 150.25 559.204C145.537 561.663 144.183 561.026 140.042 554.401C137.894 550.964 135.585 547.532 134.911 546.775C133.944 545.689 133.955 544.321 134.963 540.275C136.555 533.889 139.272 529.305 143.071 526.601C144.915 525.288 146 523.627 146 522.118C146 520.745 146.854 519.264 148 518.651C149.1 518.062 150 516.915 150 516.102C150 514.153 156.024 508.718 158.224 508.68C159.173 508.664 160.64 509.988 161.485 511.621C164.064 516.609 169.711 518.619 168.589 514.151C168.061 512.047 168.313 511.651 170.181 511.651C171.907 511.651 172.133 511.384 171.2 510.451C170.54 509.791 170 508.891 170 508.451C170 506.936 172.693 507.655 174.5 509.651C175.495 510.751 176.845 511.651 177.5 511.651C178.155 511.651 179.481 512.525 180.449 513.594C181.416 514.663 183.506 515.823 185.092 516.171C186.679 516.52 188.234 517.22 188.548 517.728C189.453 519.193 191.27 518.798 190.682 517.264C190.307 516.289 190.725 516.028 192.09 516.385C194.475 517.009 195.377 518.3 194.016 519.141C193.457 519.486 193 520.642 193 521.71C193 524.468 189.839 524.173 187 521.151C184.426 518.411 182 517.867 182 520.029C182 520.788 179.53 523.313 176.511 525.643C173.492 527.972 171.242 530.234 171.512 530.67C172.364 532.049 176.345 530.502 180.914 527.017C185.75 523.33 187.755 522.85 188.645 525.168C189.194 526.598 182.501 534.648 180.761 534.65C179.851 534.651 168 543.602 168 544.288C168 547.827 173.478 550.175 174.644 547.136C175.363 545.263 180.533 539.651 181.54 539.651C182.658 539.651 194.824 529.062 200.664 523.006C204.005 519.542 206.654 517.65 208.164 517.647C209.449 517.645 211.889 516.796 213.587 515.761C215.285 514.725 218.66 513.634 221.087 513.335C223.514 513.036 227.975 512.487 231 512.114C234.025 511.742 236.95 510.899 237.5 510.241C238.05 509.584 241.087 508.24 244.25 507.256C247.413 506.271 250 505.266 250 505.023C250 504.781 247.719 504.885 244.932 505.254C240.78 505.805 239.379 505.573 237.182 503.971C235.707 502.896 233.715 501.724 232.756 501.367C230.217 500.423 227.295 495.105 226.537 490.048C226.174 487.629 225.506 485.651 225.052 485.651C224.598 485.651 223.939 483.738 223.586 481.401C222.569 474.664 220.346 469.182 218.478 468.805C217.535 468.614 216.95 468.839 217.179 469.305C220.407 475.878 221.999 481.238 222.004 485.55C222.006 487.531 222.906 490.624 224.004 492.425C226.175 495.987 226.517 497.651 225.078 497.651C224.57 497.651 223.62 495.964 222.966 493.901C222.312 491.839 221.04 489.026 220.139 487.651C219.237 486.276 217.72 482.676 216.766 479.651L215.032 474.151L215.638 478.651C215.971 481.126 217.036 484.951 218.004 487.151C218.971 489.351 220.307 492.579 220.971 494.324C222.15 497.42 225.045 500.706 229.909 504.465C232.549 506.506 232.053 508.651 228.941 508.651C227.873 508.651 227 509.059 227 509.557C227 510.056 224.702 510.779 221.894 511.166C216.831 511.862 216.75 511.83 212.144 507.305C209.59 504.796 205.813 502.041 203.75 501.184C201.688 500.326 200 499.244 200 498.779C200 497.596 186.337 495.407 181.5 495.814C179.024 496.023 177.591 496.616 177.74 497.371C178.036 498.878 174.753 500.71 170.612 501.349C168.9 501.613 166.782 502.471 165.905 503.255C164.757 504.281 161.868 504.646 155.596 504.558C146.952 504.436 143.553 505.198 147.794 506.307C150.171 506.929 150.837 508.651 148.7 508.651C146.71 508.651 145 506.502 145 504.001C145 502.763 144.437 501.391 143.75 500.951C143.063 500.511 141.708 498.723 140.739 496.979C139.13 494.079 139.068 492.359 140.022 476.979C141.101 459.562 141.47 457.118 143.372 454.745C144.289 453.602 144.63 453.883 145.195 456.245C145.577 457.843 145.635 456.676 145.324 453.651C145.013 450.626 144.448 447.926 144.069 447.651C143.69 447.376 143.266 444.901 143.126 442.151C142.901 437.736 141.735 434.221 137.725 425.871C136.853 424.056 136.967 423.256 138.284 421.938C139.822 420.4 140.08 420.413 141.969 422.123C143.086 423.134 144 424.615 144 425.414C144 427.333 148.294 436.651 149.178 436.651C149.557 436.651 150.036 435.413 150.243 433.901C150.584 431.412 150.699 431.341 151.457 433.151C155.211 442.113 156.262 444.526 157.556 447.151L159.034 450.151L158.48 446.651C158.176 444.726 157.661 441.801 157.336 440.151L156.745 437.151L159.355 439.559C160.791 440.884 162.243 442.843 162.583 443.912C162.922 444.982 164.292 447.465 165.625 449.431C166.959 451.397 168.323 454.163 168.657 455.578C168.99 456.993 170.216 459.201 171.381 460.485L173.5 462.819L170.75 465.187C167.139 468.297 167.275 469.651 171.2 469.651C173.689 469.651 174.133 469.384 173.2 468.451C171.573 466.824 171.684 465.593 173.399 466.251C174.168 466.546 175.095 466.307 175.458 465.719C175.821 465.132 177.722 464.651 179.681 464.651C182.736 464.651 183.067 464.437 182 463.151C181.315 462.326 179.91 461.651 178.878 461.651C177.066 461.651 176.427 459.445 176.811 454.51C176.881 453.607 176.052 452.636 174.969 452.353C173.68 452.016 173 450.984 173 449.367C173 448.008 172.33 446.34 171.511 445.66C170.692 444.98 170.227 444.093 170.477 443.688C170.727 443.284 169.822 441.988 168.466 440.808C167.11 439.629 166 437.851 166 436.858C166 435.864 165.475 434.526 164.833 433.884C163.943 432.994 164.062 432.564 165.333 432.077C166.271 431.717 167 430.349 167 428.95C167 427.288 167.677 426.287 169.041 425.93C170.427 425.568 170.989 424.714 170.791 423.274C170.599 421.873 171.247 420.823 172.695 420.187C173.903 419.657 175.441 418.195 176.114 416.937C177.78 413.825 182.029 413.963 185.943 417.257C188.457 419.372 189.317 419.633 190.51 418.642C192.172 417.264 191.587 413.14 189.366 410.572C188.615 409.704 188 408.241 188 407.322C188 406.286 187.194 405.651 185.878 405.651C183.895 405.651 183.855 405.504 185.273 403.401C186.944 400.924 189.486 400.924 192.256 403.402C193.222 404.265 194.256 404.728 194.555 404.43C195.499 403.485 193.803 398.513 192.346 397.953C191.433 397.603 191.274 397.025 191.888 396.284C192.5 395.545 192.196 394.374 191.015 392.915C189.553 391.112 189.093 390.967 188.633 392.165C188.26 393.138 186.677 393.651 184.047 393.651C180.994 393.651 179.249 392.939 176.766 390.68L173.5 387.71L176 387.64C178.275 387.578 178.17 387.407 174.832 385.738C172.814 384.729 169.552 383.602 167.582 383.232C163.567 382.479 163.022 381.245 166 379.651C167.356 378.925 168 378.914 168 379.616C168 380.185 168.675 380.651 169.5 380.651C171.667 380.651 171.342 378.905 168.935 377.616C167.332 376.758 167.124 376.206 168.005 375.145C168.74 374.26 168.817 373.141 168.224 371.965C167.133 369.803 169.758 356.104 172.374 350.303C173.328 348.186 173.929 345.711 173.709 344.803C173.373 343.415 173.197 343.471 172.605 345.151C172.218 346.251 171.047 348.773 170.004 350.756C168.961 352.738 167.792 356.735 167.407 359.638C166.876 363.647 166.247 365.035 164.792 365.416C163.439 365.769 162.941 366.685 163.095 368.534C163.466 372.997 161.846 380.767 160.63 380.358C159.425 379.954 159.304 379.383 159.1 373.151C159.015 370.549 158.674 369.617 158.124 370.485C157.449 371.549 157.149 371.482 156.639 370.153C156.288 369.237 156 367.772 156 366.898C156 366.024 155.251 364.481 154.336 363.47C153.013 362.008 152.898 361.173 153.773 359.391C156.045 354.769 156.216 352.548 154.452 350.598C153.241 349.26 153.025 348.309 153.728 347.42C154.676 346.223 156.376 331.002 156.357 323.882C156.352 322.01 155.325 319.233 153.951 317.382C152.465 315.379 151.5 312.631 151.412 310.151C151.334 307.951 150.929 305.344 150.511 304.358C149.551 302.088 150.177 301.483 153.781 301.2C155.37 301.075 157.195 300.648 157.836 300.253C159.582 299.173 161 300.472 161 303.151C161 304.461 161.45 305.811 162 306.151C162.55 306.491 163 308.092 163 309.71C163 311.328 162.55 312.651 162 312.651C160.627 312.651 160.736 316.987 162.144 318.395C163.004 319.255 162.983 320.279 162.061 322.505C160.783 325.59 161.922 329.651 164.067 329.651C165.783 329.651 166.285 326.7 164.862 324.976C163.798 323.687 163.773 323.234 164.75 322.905C165.542 322.639 166.026 320.406 166.07 316.818C166.109 313.701 166.483 310.275 166.902 309.205C167.611 307.394 167.717 307.429 168.428 309.705L169.191 312.151L170.289 309.401C170.892 307.889 171.738 306.651 172.168 306.651C172.598 306.651 173.073 313.733 173.225 322.388C173.471 336.453 173.686 338.161 175.25 338.462C176.673 338.735 177 338.075 177 334.924C177 332.794 176.449 330.5 175.775 329.826C174.808 328.859 174.808 328.187 175.775 326.64C176.449 325.561 177 323.097 177 321.165C177 316.549 178.065 316.761 180.412 321.843C181.463 324.12 184.977 328.474 188.219 331.519C193.162 336.159 194.016 337.451 193.5 339.506C192.675 342.795 194.612 347.167 197.829 349.275L200.456 350.996L198.622 348.197C197.613 346.657 196.417 344.104 195.964 342.524C195.19 339.826 195.318 339.651 198.07 339.651C200.584 339.651 201 339.269 201 336.96C201 334.392 201.065 334.357 202.418 336.208C204.213 338.662 205.438 337.534 204.601 334.198C204.022 331.892 203.487 331.651 198.946 331.651C193.913 331.651 189.006 329.499 188.994 327.286C188.99 326.662 188.271 324.801 187.395 323.151C186.519 321.501 185.831 318.207 185.866 315.831C185.932 311.382 184.358 307.651 182.415 307.651C181.808 307.651 180.008 306.531 178.415 305.162C176.822 303.793 173.602 301.657 171.259 300.414C168.917 299.171 167 297.582 167 296.881C167 296.181 165.875 295.096 164.5 294.469C163.125 293.843 162 292.727 162 291.99C162 291.254 161.38 290.651 160.622 290.651C159.865 290.651 158.627 289.898 157.872 288.978C156.66 287.5 156.734 287.37 158.5 287.864C159.6 288.172 161.4 288.766 162.5 289.185C164.891 290.094 164.266 289.452 157.63 284.186C154.951 282.06 152.133 278.82 151.366 276.986C150.6 275.152 149.55 273.651 149.033 273.651C148.517 273.651 147.366 272.117 146.476 270.242C145.586 268.367 143.99 266.047 142.929 265.087C141.09 263.422 141 263.427 141 265.183C141 266.743 140.541 266.585 138 264.151C136.35 262.57 135 260.672 135 259.933C135 259.193 134.325 258.329 133.5 258.013C132.571 257.656 132 256.134 132 254.013C132 251.658 131.453 250.391 130.25 249.957C129.287 249.61 127.262 248.468 125.75 247.42C123.291 245.717 123 244.907 123 239.783C123 236.63 122.573 233.623 122.052 233.101C120.973 232.02 119.728 208.524 120.626 206.184C121.825 203.059 123 204.803 123 209.71C123 212.504 123.408 214.517 123.912 214.205C125.04 213.508 125.089 197.533 123.968 196.141C123.52 195.586 123.627 189.757 124.206 183.188L125.258 171.246L120.31 166.698C115.92 162.665 112 157.706 112 156.186C112 155.892 112.675 155.651 113.5 155.651C114.325 155.651 115 154.976 115 154.151C115 153.326 114.55 152.651 114 152.651C113.45 152.651 113 152.083 113 151.388C113 150.694 111.99 149.681 110.756 149.138C108.002 147.927 107.121 144.651 109.549 144.651C110.964 144.651 111.033 144.395 109.965 143.109C107.926 140.651 110.397 138.795 112.805 140.975C113.824 141.897 115.115 142.651 115.674 142.651C116.233 142.651 117.514 143.562 118.521 144.675C120.874 147.275 122.392 145.811 121.037 142.249C119.643 138.581 119.729 137.651 121.465 137.651C123.425 137.651 129.748 143.28 130.52 145.713C131.317 148.225 135.031 148.247 135.686 145.743C136.356 143.182 139.766 142.338 140.471 144.559C141.581 148.057 141.248 161.324 139.96 164.884C138.906 167.801 138.851 170.312 139.7 176.863C140.291 181.421 140.848 188.976 140.939 193.651C141.127 203.385 141.699 208.295 142.976 211.151C146.817 219.737 148 223.421 148 226.792C148 228.929 148.558 231.572 149.241 232.665C150.228 234.246 150.228 235.056 149.241 236.637C146.302 241.342 149.038 246.651 154.401 246.651C157.966 246.651 165.444 251.062 168.025 254.686C169.14 256.252 170.94 257.815 172.026 258.159C173.112 258.504 174 259.322 174 259.978C174 260.633 174.9 261.732 176 262.419C177.1 263.106 178 264.237 178 264.932C178 265.627 179.281 267.76 180.847 269.673C183.82 273.306 186.523 277.777 186.288 278.675C186.212 278.963 187.007 280.313 188.053 281.675L189.956 284.151L189.978 281.909C189.99 280.677 190.9 279.106 192 278.419C193.1 277.732 194 276.566 194 275.827C194 274.299 194.165 274.351 199.161 277.463C202.602 279.606 213 292.537 213 294.672C213 295.211 213.45 295.651 214 295.651C214.55 295.651 215 296.483 215 297.501C215 298.518 216.35 301.215 218 303.492C219.65 305.77 221 307.91 221 308.248C221 308.586 222.162 310.243 223.581 311.93C228.125 317.33 230.967 324.686 232.54 335.116C233.373 340.635 234.427 345.829 234.884 346.659C236.086 348.841 236.293 366.161 235.143 368.321C234.607 369.328 233.385 375.625 232.427 382.315C230.907 392.932 230.865 394.903 232.093 397.815C232.898 399.724 233.483 404.359 233.459 408.651C233.414 417.044 231.366 421.627 227.635 421.683C226.461 421.7 224.6 422.401 223.5 423.241C221.652 424.651 221.885 424.716 226.584 424.102C231.576 423.449 231.693 423.494 232.965 426.566C233.976 429.007 234.028 431.504 233.203 437.923C232.622 442.448 232.402 449.863 232.716 454.401C233.344 463.49 232.607 464.509 228.318 460.48C224.778 457.154 224.229 459.247 227.679 462.916C230.616 466.039 233.036 469.976 234.585 474.151C235.695 477.141 235.714 478.028 234.701 479.386C233.592 480.873 233.196 494.163 234.229 495.207C235.752 496.744 245.467 497.659 248.25 496.527C251.694 495.126 251.935 490.998 248.975 484.092C246.848 479.132 246.85 477.561 248.98 480.127C249.676 480.965 251.042 481.651 252.015 481.651C252.989 481.651 254.034 482.297 254.337 483.086C255.044 484.929 259 487.135 259 485.686C259 485.117 258.494 484.651 257.876 484.651C257.258 484.651 254.936 482.587 252.716 480.065C250.495 477.543 247.615 475.075 246.314 474.58C245.013 474.086 243.667 472.887 243.322 471.916C242.978 470.945 242.096 469.448 241.364 468.59C239.837 466.8 241.054 460.869 243.232 459.487C244.164 458.895 244.055 458.678 242.823 458.666C240.891 458.649 237 463.184 237 465.453C237 466.295 236.663 466.647 236.25 466.234C235.837 465.821 235.393 449.658 235.261 430.317C235.13 410.976 234.992 393.576 234.955 391.651C234.862 386.891 236.567 375.038 238.048 370.151C240.232 362.94 238.07 337.044 234.249 324.651C233.298 321.568 227.989 312.516 223.985 307.151C222.343 304.951 219.924 300.901 218.609 298.151C213.071 286.565 199.624 273.344 191.737 271.731C190.039 271.384 188.484 270.604 188.283 269.999C187.825 268.627 193.722 265.077 198.735 263.707C204.226 262.207 224.64 251.631 233.154 245.876C247.037 236.492 261.986 220.871 270.269 207.094C281.761 187.979 290.461 159.027 291.588 136.151C292.711 113.353 282.268 78.8841 267.972 58.2051C260.431 47.2971 240.724 27.5561 233.97 24.1451C230.961 22.6261 227.215 20.3071 225.645 18.9931C221.77 15.7491 205.324 7.78612 201 7.06012L197.5 6.47112L200.364 8.06112C201.94 8.93612 203.804 9.65112 204.507 9.65112C205.211 9.65112 206.012 10.2411 206.289 10.9621C206.566 11.6821 208.585 12.8091 210.777 13.4661C212.969 14.1231 215.321 15.3331 216.004 16.1561C216.686 16.9781 217.982 17.6511 218.882 17.6511C219.782 17.6511 221.011 18.4391 221.613 19.4011C222.215 20.3631 224.414 21.7661 226.499 22.5181C231.831 24.4411 237.973 29.3361 249.295 40.6851C258.379 49.7911 264 56.6161 264 58.5401C264 58.9811 264.902 60.1571 266.005 61.1551C267.107 62.1531 269.226 65.3731 270.713 68.3101C272.201 71.2481 273.774 73.6511 274.209 73.6511C274.644 73.6511 275 74.2651 275 75.0161C275 75.7671 275.845 77.4561 276.879 78.7691C277.912 80.0831 279.76 84.7561 280.986 89.1541C282.212 93.5521 283.565 97.6011 283.992 98.1511C286.886 101.88 289.143 140.787 287.083 151.441C286.058 156.744 285.216 157.667 283.518 155.345C282.358 153.759 282.061 154.423 281.058 160.846C280.43 164.864 279.26 169.629 278.458 171.435C277.656 173.241 277 175.397 277 176.226C277 177.602 272.914 186.52 269.475 192.651C268.704 194.026 266.909 197.401 265.486 200.151C261.149 208.534 259.569 211.046 256.982 213.664C255.617 215.047 253.31 217.747 251.855 219.664C249.166 223.208 246.57 223.17 248.788 219.619C249.455 218.552 250 216.987 250 216.143C250 215.299 251.125 214.096 252.5 213.469C253.875 212.843 255 211.764 255 211.072C255 210.381 255.301 208.99 255.67 207.983C256.897 204.625 252.815 208.976 249.499 214.561C246.466 219.668 243.504 221.127 242.337 218.087C242.007 217.227 242.211 215.484 242.79 214.213L243.843 211.902L239.532 214.085C237.161 215.285 232.872 218.379 230.002 220.959C227.132 223.54 224.206 225.651 223.499 225.651C222.165 225.651 220.581 228.565 221.445 229.43C221.716 229.7 223.135 229.073 224.597 228.036C229.403 224.63 233.483 222.794 233.872 223.862C234.076 224.423 233.744 225.191 233.134 225.568C230.262 227.343 219 237.121 219 237.839C219 238.286 219.675 238.651 220.5 238.651C222.327 238.651 222.425 239.799 220.75 241.58C219.72 242.675 220.024 242.785 222.47 242.206C224.103 241.819 228.751 238.498 232.799 234.827C236.846 231.155 241.022 227.534 242.079 226.779C243.791 225.557 244 225.625 244 227.407C244 228.695 242.126 230.698 238.74 233.03C235.847 235.023 232.918 237.552 232.231 238.652C231.545 239.751 230.181 240.651 229.2 240.651C228.219 240.651 225.429 242.676 223 245.151C220.571 247.626 217.777 249.651 216.792 249.651C214.608 249.651 214.479 248.328 216.5 246.651C218.163 245.271 218.529 242.651 217.059 242.651C216.541 242.651 215.873 243.047 215.575 243.53C215.276 244.014 214.012 244.674 212.766 244.997C211.02 245.45 211.419 244.798 214.5 242.156C216.7 240.269 218.148 238.709 217.718 238.689C216.443 238.627 209.699 241.624 208.037 242.99C207.191 243.685 204.256 244.819 201.513 245.512C198.77 246.204 195.81 247.418 194.934 248.211C193.245 249.74 189 250.198 189 248.851C189 247.351 191.395 245.651 193.509 245.651C194.669 245.651 196.491 244.99 197.559 244.183C198.626 243.375 200.53 242.7 201.79 242.683C203.112 242.664 205.736 240.961 208 238.651C210.156 236.451 212.786 234.651 213.844 234.651C214.926 234.651 215.995 233.776 216.29 232.651C216.896 230.334 215.765 230.025 214.085 232.048C213.125 233.205 204.499 236.651 202.562 236.651C201.224 236.651 202.158 234.531 203.75 233.957C206.687 232.897 216 226.514 216 225.561C216 225.069 213.038 226.238 209.417 228.159C205.796 230.079 202.249 231.651 201.534 231.651C200.818 231.651 199.999 232.546 199.713 233.639C199.296 235.236 195.806 237.544 193 238.079C192.725 238.131 191.15 238.69 189.5 239.321C187.85 239.951 183.674 241.023 180.221 241.702C176.767 242.381 173.703 243.322 173.412 243.794C172.705 244.937 166.651 244.893 165.45 243.736C164.928 243.232 163.375 242.647 162 242.436C160.625 242.224 163.646 241.689 168.713 241.248C174.611 240.734 178.35 239.934 179.104 239.025C179.78 238.211 181.096 237.864 182.19 238.211C183.239 238.544 185.185 238.105 186.514 237.234C187.842 236.363 190.451 235.651 192.31 235.651C195.587 235.651 199 233.241 199 230.927C199 229.825 207.966 223.657 209.588 223.643C210.089 223.639 211.02 222.514 211.656 221.143C213.156 217.908 212.253 217.997 207.978 221.505C206.065 223.074 202.7 224.968 200.5 225.713C198.3 226.458 195.978 227.446 195.339 227.908C193.282 229.397 192.728 226.61 194.652 224.452C196.768 222.079 197.594 222.029 183 225.151C178.875 226.034 174.6 226.848 173.5 226.96C172.4 227.072 170.88 227.561 170.122 228.046C168.969 228.783 168.992 229.067 170.262 229.778C171.903 230.696 182.864 228.944 184.45 227.51C184.973 227.038 186.708 226.651 188.307 226.651C190.48 226.651 191.069 227.03 190.638 228.151C190.288 229.065 190.637 229.651 191.531 229.651C193.573 229.651 193.374 232.384 191.25 233.501C190.288 234.008 186.892 235 183.704 235.706C180.517 236.412 177.678 237.363 177.395 237.82C176.799 238.786 171.885 238.928 169.588 238.046C167.09 237.088 168.8 235.651 172.437 235.651C176.136 235.651 182.479 233.303 183.576 231.528C184.482 230.063 178.461 231.088 174.351 233.098C171.823 234.335 162.957 235.081 154.595 234.762C151.846 234.657 151.779 234.553 153.345 232.822C155.453 230.493 155.437 229.651 153.286 229.651C151.69 229.651 151.686 229.537 153.229 227.994C154.213 227.009 156.619 226.299 159.152 226.244C163.375 226.152 163.42 226.113 163.548 222.401L163.678 218.651H157.773C154.526 218.651 150.925 218.146 149.771 217.528L147.673 216.406L150.087 214.551L152.5 212.695L149.857 212.673C147.306 212.652 145.43 210.383 146.513 208.63C146.799 208.167 146.575 207.507 146.016 207.161C144.251 206.07 144.913 202.544 147.25 200.595C149.113 199.041 149.208 198.712 147.807 198.684C144.565 198.621 143.254 195.04 143.481 186.869C143.598 182.624 143.251 178.58 142.709 177.882C141.803 176.715 142.209 170.359 143.715 162.151C144.017 160.501 144.225 156.901 144.175 154.151C144.126 151.401 144.052 147.351 144.011 145.151C143.969 142.951 143.556 140.251 143.092 139.151C142.628 138.051 141.739 135.883 141.115 134.333C140.273 132.24 139.411 131.596 137.768 131.833C136.042 132.081 135.369 133.099 134.707 136.459C133.799 141.073 131.416 142.94 129.602 140.459C128.991 139.625 127.369 138.591 125.996 138.162C124.623 137.732 122.022 136.092 120.215 134.516C116.052 130.885 113.93 130.902 111.206 134.586C109.723 136.592 108.001 137.621 105.768 137.836L102.5 138.151L102.541 146.341C102.573 152.89 102.955 154.944 104.446 156.591C105.471 157.724 105.903 158.665 105.405 158.681C104.907 158.698 105.287 159.17 106.25 159.731C107.213 160.292 108 161.224 108 161.804C108 162.383 110.025 165.109 112.5 167.862C116.647 172.475 117 173.286 117 178.209C117 182.233 116.573 183.79 115.271 184.519C113.661 185.42 113.655 185.613 115.194 187.319C116.64 188.921 116.669 189.394 115.424 191.092C114.641 192.16 114 194.072 114 195.342C114 196.612 113.55 197.651 113 197.651C112.45 197.651 112 198.686 112 199.951C112 201.216 111.596 202.679 111.103 203.201C110.61 203.724 109.9 206.031 109.527 208.329C108.903 212.173 109.066 212.622 111.567 213.932C113.546 214.969 113.934 215.574 112.991 216.157C112.197 216.647 111.229 216.317 110.488 215.304C109.785 214.342 107.893 213.651 105.965 213.651H102.651L105 216.151C107.278 218.576 107.287 218.651 105.297 218.651C102.794 218.651 100.577 216.195 101.324 214.25C101.888 212.779 94.505 205.756 91.046 204.474C88.682 203.597 85.551 197.651 87.454 197.651C88.17 197.651 89.315 198.326 90 199.151C90.685 199.976 91.865 200.651 92.622 200.651C93.38 200.651 94 201.281 94 202.05C94 203.259 100.844 207.651 102.727 207.651C103.945 207.651 96.562 200.503 92.25 197.507C89.912 195.884 88 194.105 88 193.555C88 192.539 83.006 187.74 81.889 187.683C81.552 187.665 81.496 188.889 81.764 190.401C82.163 192.656 82.012 192.926 80.925 191.901C80.196 191.214 78.902 190.647 78.05 190.643C77.197 190.639 75.942 189.434 75.26 187.966C73.796 184.813 74.608 183.395 76.442 185.903C77.59 187.472 80 188.348 80 187.195C80 186.945 78.875 185.082 77.5 183.056C76.125 181.03 75 178.607 75 177.672C75 175.514 69.908 168.736 68.25 168.687C66.657 168.641 66.65 168.587 68.893 173.774C69.934 176.181 71.099 179.276 71.482 180.651C72.603 184.677 67.723 177.221 64.937 170.651C63.655 167.626 62.21 164.878 61.727 164.545C60.251 163.528 59.759 156.304 60.984 153.651C64.551 145.927 68.086 141.505 73.25 138.308C74.762 137.371 76 136.04 76 135.35C76 134.661 76.787 132.997 77.75 131.654C78.713 130.312 80.182 127.174 81.015 124.682C82.222 121.071 82.933 120.224 84.515 120.509C85.607 120.705 91.22 121.02 96.989 121.208C106.013 121.503 107.759 121.297 109.489 119.739C113.153 116.44 118.313 115.549 136.743 115.036C152.228 114.605 155.323 114.764 157.216 116.09C158.442 116.948 160.904 117.651 162.686 117.651C165.31 117.651 166.412 118.363 168.464 121.383C171.58 125.969 171.582 126.199 168.557 130.165C166.32 133.098 166.24 133.549 167.614 135.51C168.454 136.71 170.193 137.651 171.57 137.651C172.922 137.651 174.921 138.101 176.014 138.651C177.106 139.201 178.894 140.101 179.986 140.651C182.711 142.023 186.254 141.913 185.774 140.472C185.254 138.912 183.462 138.045 177.779 136.604C172.553 135.279 171.365 133.453 172.975 129.218C174.534 125.117 174.234 122.981 171.487 118.631C169.191 114.993 168.604 114.651 164.654 114.651C162.278 114.651 159.996 114.313 159.583 113.901C159.171 113.489 158.083 113.112 157.167 113.065C156.25 113.017 154.731 112.639 153.791 112.223C152.851 111.808 145.201 111.737 136.791 112.065C128.381 112.394 120.422 112.659 119.104 112.656C117.786 112.652 116.211 113.036 115.604 113.508C110.667 117.352 94.859 118.873 88.307 116.135C83.547 114.146 81.381 114.965 79.952 119.295C79.308 121.247 78.158 124.038 77.397 125.498C76.635 126.957 76.01 128.71 76.006 129.393C76.003 130.075 75.1 131.196 74 131.883C72.9 132.57 72 133.705 72 134.406C72 135.107 70.657 136.497 69.015 137.496C67.373 138.494 64.911 140.85 63.544 142.731C58.123 150.189 56 153.678 56 155.131C56 158.312 54.146 156.473 53.5 152.651C52.584 147.228 50 147.184 50 152.592C50 154.76 50.45 156.811 51 157.151C52.247 157.922 52.321 160.651 51.095 160.651C50.597 160.651 49.585 158.771 48.845 156.473C48.105 154.175 46.938 152.112 46.25 151.889C44.448 151.306 44.679 159.642 46.532 162.092C48.338 164.48 48.431 166.651 46.727 166.651C45.276 166.651 43.035 158.025 42.248 149.401C41.959 146.239 41.335 143.651 40.861 143.651C40.388 143.651 39.968 142.413 39.93 140.901C39.891 139.389 39.473 137.251 39 136.151C38.226 134.349 38.134 134.411 38.07 136.776C38.032 138.22 37.723 140.787 37.384 142.481C36.84 145.202 36.595 145.389 35.287 144.081C33.623 142.417 32.395 132.198 33.385 128.255C33.865 126.339 34.603 125.74 36.265 125.916C38.327 126.133 38.524 125.687 38.805 120.151C39.118 113.997 37.481 113.162 36.827 119.142C36.609 121.136 35.864 122.255 34.594 122.496C32.803 122.836 32.726 122.357 33.326 114.574C33.702 109.705 34.476 105.975 35.204 105.525C35.885 105.104 36.131 104.449 35.751 104.068C35.37 103.688 35.946 102.131 37.03 100.61C39.07 97.7441 39.69 92.1961 38.081 91.2011C37.576 90.8891 36.851 92.1001 36.47 93.8921C36.089 95.6851 35.155 97.8591 34.394 98.7241C33.633 99.5891 32.721 102.514 32.367 105.224C31.593 111.145 30.433 113.651 28.465 113.651C27.504 113.651 27 112.619 27 110.651C27 109.001 26.55 107.651 26 107.651C25.45 107.651 25 108.085 25 108.616C25 109.146 24.074 110.076 22.943 110.682C20.937 111.755 20.903 111.625 21.593 105.467C21.983 101.993 22.96 98.1391 23.766 96.9011C24.571 95.6641 24.841 94.6441 24.365 94.6361C23.889 94.6271 24.124 94.2251 24.887 93.7421C25.774 93.1801 26.302 90.8971 26.352 87.4021C26.417 82.9381 26.799 81.7761 28.441 81.0451C29.547 80.5531 31.012 79.0261 31.697 77.6511C36.283 68.4481 39 61.8761 39 59.9851C39 58.7781 40.013 56.0971 41.25 54.0291C43.702 49.9311 63.258 30.1281 70.015 24.9011C74.038 21.7891 79 20.5461 79 22.6511C79 24.5401 81.856 23.6491 83.825 21.1471C84.908 19.7691 87.227 18.3561 88.977 18.0061C92.009 17.3991 92.144 17.5051 91.83 20.2241C91.56 22.5601 90.891 23.2031 88.157 23.7581C84.003 24.6011 82.008 26.3331 84.216 27.1801C85.106 27.5221 88.187 26.2271 91.446 24.1421L97.126 20.5091L96.464 15.2121C95.809 9.96712 95.833 9.90511 98.901 8.83511C100.606 8.24111 102 7.28211 102 6.70311C102 5.09311 99.83 5.44212 95.984 7.67012ZM94.368 28.6381C92.893 29.2341 92.108 30.6001 91.819 33.0751C91.447 36.2601 91.653 36.6511 93.701 36.6511C94.965 36.6511 96.046 36.3131 96.101 35.9011C96.441 33.3921 96.855 27.6611 96.693 27.7141C96.587 27.7491 95.541 28.1651 94.368 28.6381ZM82.509 40.0211C80.938 41.1701 80.79 41.9351 81.592 44.7711C82.329 47.3801 83.511 48.5891 86.774 50.0721C91.79 52.3521 91.993 53.6761 88.472 61.1181L85.945 66.4611L79.928 67.1591C73.149 67.9461 71.621 69.3981 70.461 76.1511C69.878 79.5411 65.361 90.4861 61.86 96.9931C60.473 99.5701 63.39 101.579 68.576 101.619C71.604 101.643 73.255 102.293 75 104.151C77.183 106.475 81.042 107.607 80.967 105.901C80.841 103.073 74.572 98.6511 70.688 98.6511C69.344 98.6511 67.689 97.9821 67.011 97.1641C65.814 95.7221 65.965 94.8041 67.915 91.6511C70.182 87.9851 75 76.6041 75 74.9141C75 71.9721 77.06 70.6511 81.648 70.6511C87.155 70.6511 90.486 67.6811 91.459 61.9061C91.852 59.5721 92.585 57.4081 93.087 57.0971C93.589 56.7871 94 55.2141 94 53.6011C94 51.3491 93.19 50.1461 90.504 48.4101C86.663 45.9281 85.197 43.0541 86.901 41.3501C89.627 38.6241 85.944 37.5091 82.509 40.0211ZM49.377 49.1111C49.034 50.0051 48.969 50.9531 49.233 51.2181C50.08 52.0651 53.098 50.4441 52.73 49.3401C52.129 47.5381 50.035 47.3951 49.377 49.1111ZM166 49.5431C166 50.0331 167.193 50.7341 168.651 51.1001C170.109 51.4651 172.092 52.7691 173.058 53.9971C174.648 56.0191 179.128 58.5441 189 62.9821C190.925 63.8471 194.686 66.3771 197.359 68.6031C200.031 70.8291 202.619 72.6511 203.109 72.6511C203.599 72.6511 204 73.7761 204 75.1511C204 76.5261 203.646 77.6511 203.212 77.6511C202.779 77.6511 200.866 78.9621 198.962 80.5651L195.5 83.4791L198 84.4471C201.12 85.6561 205.956 90.4181 207.093 93.4011C207.565 94.6381 208.637 95.6511 209.475 95.6511C210.314 95.6511 211 96.2481 211 96.9771C211 100.099 218.497 104.588 226.082 106.008C230.463 106.828 233.111 104.469 233.345 99.5341C233.472 96.8721 233.066 96.1801 231.095 95.6961C227.671 94.8561 226.189 92.1791 227.757 89.6681C229.59 86.7331 229.304 85.4711 226.25 83.0131C224.041 81.2361 223.746 80.5491 224.75 79.5261C226.225 78.0221 226.422 74.6511 225.035 74.6511C222.223 74.6511 221.005 82.5811 223.5 84.6511C225.266 86.1161 225.453 88.7981 223.898 90.3531C223.095 91.1561 223.924 92.5501 226.949 95.4851C230.687 99.1131 230.973 99.7221 229.81 101.583C229.1 102.721 227.764 103.651 226.842 103.651C220.726 103.651 209.102 94.2061 205.431 86.2541C203.736 82.5821 203.73 82.1871 205.316 79.4231C206.242 77.8091 207 75.8891 207 75.1551C207 72.9471 195.831 62.7501 192.042 61.5001C187.535 60.0121 180.122 56.0781 177.517 53.7911C172.556 49.4361 166 47.0171 166 49.5431ZM159.719 52.2661C158.564 53.4201 162.299 57.7631 166.126 59.7151C170.078 61.7311 177 68.0351 177 69.6171C177 70.1121 178.99 72.1481 181.422 74.1411L185.844 77.7641L185.271 83.3101C184.752 88.3461 184.871 88.8231 186.569 88.4951C187.87 88.2451 188.696 86.8391 189.281 83.8821L190.122 79.6291L180.811 69.6281C175.105 63.4981 169.803 58.7971 167.116 57.4841C164.705 56.3071 162.515 54.5121 162.249 53.4971C161.758 51.6161 160.823 51.1621 159.719 52.2661ZM135 53.5381C135 54.4311 134.42 54.5911 123.5 56.7171C120.2 57.3591 116.713 58.5771 115.75 59.4231C113.511 61.3911 113.457 67.3941 115.657 69.8241C117.167 71.4931 117.177 71.9411 115.768 74.9031C114.919 76.6891 113.684 79.9511 113.025 82.1511C111.632 86.7971 98.922 99.6511 95.721 99.6511C93.461 99.6511 86 103.63 86 104.835C86 106.005 90.762 105.845 91.5 104.651C91.84 104.101 93.216 103.651 94.559 103.651C95.902 103.651 97 103.201 97 102.651C97 102.101 97.865 101.651 98.922 101.651C101.549 101.651 115 88.6091 115 86.0611C115 84.9561 115.54 83.5111 116.2 82.8511C116.86 82.1911 117.073 81.6511 116.674 81.6511C116.275 81.6511 116.692 80.2131 117.601 78.4561C118.822 76.0951 119.118 73.6811 118.738 69.2061C118.183 62.6861 118.544 60.6511 120.255 60.6511C120.853 60.6511 122.053 60.0331 122.921 59.2781C125.481 57.0511 138.188 55.6071 142.419 57.0621C146.442 58.4451 151 62.3161 151 64.3501C151 65.0931 152.012 66.1131 153.25 66.6161C154.488 67.1201 156.85 68.4561 158.5 69.5861C160.15 70.7161 163.573 72.3321 166.106 73.1781C168.64 74.0241 171.716 75.7841 172.942 77.0891C174.898 79.1721 175.13 80.3321 174.836 86.5591C174.521 93.2041 174.633 93.6551 176.595 93.6531C179.137 93.6511 182.633 90.1601 181.065 89.1911C180.479 88.8291 179.968 88.8971 179.93 89.3421C179.702 91.9631 178.129 85.3751 178.07 81.5561C178.005 77.2801 175.94 73.6511 173.573 73.6511C171.234 73.6511 156.052 65.3211 153.5 62.6371C148.151 57.0121 141.433 52.6511 138.116 52.6511C136.402 52.6511 135 53.0501 135 53.5381ZM252.5 66.8871C247.761 68.1061 247.608 68.2081 248.452 69.5731C248.885 70.2731 249.928 70.0891 251.55 69.0261C253.363 67.8381 255.162 67.5981 258.498 68.0981C263.144 68.7951 264.886 67.3901 260.75 66.2811C258.022 65.5501 257.564 65.5841 252.5 66.8871ZM136 71.0781C136 73.5901 136.704 75.0601 138.635 76.5781C142.705 79.7801 145 79.3281 145 75.3251C145 71.4821 141.598 67.6511 138.186 67.6511C136.363 67.6511 136 68.2211 136 71.0781ZM232 71.6161C232 72.9181 235.389 74.6511 237.934 74.6511C240.797 74.6511 240.503 73.3921 237.293 71.9011C234.074 70.4061 232 70.2941 232 71.6161ZM258.009 78.9411C255.114 80.4061 254.041 83.6511 256.451 83.6511C258.418 83.6511 259.957 87.4041 259.343 90.7021C259.031 92.3771 259.879 94.4941 262.03 97.4011C263.759 99.7391 265.574 101.651 266.065 101.651C267.386 101.651 264.813 96.3601 262.749 94.8331C261.74 94.0861 261.287 93.0021 261.705 92.3331C263.016 90.2361 262.898 88.4251 261.293 85.9751C259.828 83.7391 259.867 83.4221 261.87 81.2901C265.097 77.8551 262.853 76.4901 258.009 78.9411ZM32.841 83.4011C31.667 86.0131 30.27 89.1211 29.736 90.3061C28.736 92.5221 29.519 95.0661 30.932 94.1931C31.368 93.9231 32.312 91.5531 33.029 88.9271C33.745 86.3001 34.932 83.2631 35.666 82.1781C37.259 79.8231 37.366 78.6511 35.987 78.6511C35.43 78.6511 34.014 80.7891 32.841 83.4011ZM161.532 92.3821C158.404 93.1761 153 97.7281 153 99.5701C153 102.153 155.071 103.651 158.641 103.651C160.424 103.651 162.16 104.101 162.5 104.651C162.84 105.201 164.416 105.651 166.002 105.651C169.58 105.651 172 102.486 172 97.8061C172 94.9241 171.775 94.5931 170.526 95.6291C169.716 96.3021 168.766 98.3821 168.415 100.251C167.678 104.179 165.382 104.686 160.154 102.078C157.914 100.96 157 99.8011 157 98.0781C157 96.7431 157.563 95.6411 158.25 95.6291C158.938 95.6171 160.625 94.7271 162 93.6511C163.375 92.5751 164.275 91.7381 164 91.7891C163.725 91.8411 162.614 92.1081 161.532 92.3821ZM273 101.369C273 102.307 278.062 106.651 279.156 106.651C280.373 106.651 280.209 105.899 278.385 103.116C276.924 100.886 273 99.6141 273 101.369ZM250.75 111.406C248.116 111.995 248.648 114.567 251.638 115.703C254.887 116.939 262.636 117.349 263.646 116.339C265.984 114 256.084 110.213 250.75 111.406ZM21.41 118.489C20.734 122.715 18 124.496 18 120.71C18 119.642 17.55 118.491 17 118.151C15.301 117.101 15.892 115.176 18.25 114.075C21.406 112.603 22.179 113.682 21.41 118.489ZM30.591 130.274C30.301 131.031 29.599 131.651 29.031 131.651C27.565 131.651 27.749 122.837 29.25 121.217C30.267 120.12 30.558 120.71 30.81 124.383C30.98 126.865 30.882 129.517 30.591 130.274ZM26 132.111C26 143.642 28.269 162.686 30.02 165.857C30.538 166.796 31.232 169.496 31.561 171.857L32.16 176.151L30.141 173.151C28.105 170.126 26.406 159.421 25.299 142.651C25.027 138.526 24.398 134.723 23.902 134.201C23.406 133.679 23 130.416 23 126.951C23 122.018 23.325 120.651 24.5 120.651C25.746 120.651 26 122.591 26 132.111ZM43 129.592C43 130.724 43.45 131.651 44 131.651C44.55 131.651 45 131.003 45 130.21C45 129.417 44.55 128.491 44 128.151C43.45 127.811 43 128.46 43 129.592ZM211.5 128.378C209.85 128.613 208.072 129.22 207.55 129.728C207.028 130.236 205.632 130.651 204.449 130.651C203.266 130.651 200.881 131.145 199.149 131.749C196.449 132.69 196 133.332 196 136.249C196 138.606 195.539 139.651 194.5 139.651C193.675 139.651 193 140.326 193 141.151C193 142.19 194.044 142.651 196.393 142.651C200.18 142.651 201.226 141.164 200.446 136.89C199.653 132.548 200.989 131.671 209.149 131.179C215.412 130.801 217.314 131.071 220.53 132.795C225.358 135.383 233 137.731 233 136.627C233 136.171 230.413 134.598 227.25 133.132C224.087 131.666 220.306 129.833 218.846 129.059C217.386 128.284 215.811 127.718 215.346 127.801C214.881 127.883 213.15 128.143 211.5 128.378ZM19.985 132.401C19.973 134.544 19.755 134.82 19 133.651C17.736 131.694 17.736 129.651 19 129.651C19.55 129.651 19.993 130.889 19.985 132.401ZM254.223 135.193C251.871 136.545 248.496 137.658 246.723 137.666C244.304 137.678 243.874 137.918 244.998 138.628C248.348 140.746 259 137.628 259 134.53C259 132.264 259.422 132.206 254.223 135.193ZM234 136.55C234 137.045 236.025 137.611 238.5 137.808C243.643 138.217 244.547 137.21 239.875 136.276C235.585 135.418 234 135.492 234 136.55ZM43.355 143.168C43.042 143.984 43.064 145.377 43.405 146.264C43.906 147.57 44.307 147.641 45.512 146.641C46.33 145.962 47 144.834 47 144.136C47 142.234 44.017 141.442 43.355 143.168ZM35.25 160.236C36.288 161.272 36.19 162.651 35.078 162.651C33.713 162.651 32.236 157.021 31.669 149.651L31.169 143.151L32.834 151.319C33.75 155.812 34.838 159.824 35.25 160.236ZM114 147.651C114 148.201 114.423 148.651 114.941 148.651C115.459 148.651 116.16 148.201 116.5 147.651C116.84 147.101 116.416 146.651 115.559 146.651C114.702 146.651 114 147.101 114 147.651ZM39.572 155.151C40.028 157.351 40.465 159.601 40.544 160.151C40.623 160.701 41.143 162.276 41.699 163.651C43.337 167.702 44.104 174.469 43.002 175.15C42.432 175.502 42 174.665 42 173.21C42 171.803 41.595 170.651 41.1 170.651C39.963 170.651 38.267 163.105 37.504 154.651C36.878 147.716 38.093 148.01 39.572 155.151ZM271.842 158.401C271.755 158.813 271.622 161.156 271.545 163.608L271.407 168.064L273.25 163.838C275.026 159.765 274.92 157.651 272.941 157.651C272.423 157.651 271.929 157.989 271.842 158.401ZM25.067 168.387C25.814 169.582 26.096 170.888 25.695 171.289C24.405 172.579 23.117 170.268 22.553 165.651C22.159 162.434 22.246 161.873 22.856 163.683C23.326 165.075 24.321 167.192 25.067 168.387ZM58.683 163.839C58.364 164.636 58.127 164.399 58.079 163.234C58.036 162.18 58.272 161.59 58.604 161.922C58.936 162.254 58.972 163.117 58.683 163.839ZM37.28 169.729C37.727 172.161 39.049 176.076 40.218 178.429C41.803 181.62 42.055 182.996 41.209 183.842C40.363 184.688 39.811 184.283 39.037 182.249C38.467 180.748 38 178.904 38 178.151C38 177.398 37.48 175.514 36.844 173.966C36.208 172.418 35.779 170.403 35.892 169.49C36.004 168.576 35.624 167.537 35.048 167.181C33.581 166.274 33.734 164.396 35.234 164.896C35.912 165.122 36.833 167.297 37.28 169.729ZM57.679 175.459C59.154 178.59 61.888 183.33 63.753 185.994C66.652 190.133 67.052 191.382 66.509 194.595C65.887 198.28 66.068 198.55 75.687 208.292C81.084 213.757 87.691 219.787 90.368 221.69C93.609 223.994 94.705 225.257 93.648 225.469C92.774 225.643 90.813 224.631 89.29 223.219C87.767 221.806 85.991 220.651 85.344 220.651C83.627 220.651 63 199.85 63 198.118C63 197.311 62.325 196.651 61.5 196.651C58.922 196.651 59.64 201.564 62.369 202.601C64.367 203.361 66.655 208.305 65.536 209.443C64.81 210.182 57.921 199.3 58.371 198.126C58.838 196.911 53.663 185.448 51.287 182.432C50.732 181.728 50.006 179.386 49.674 177.228C49.135 173.731 49.216 173.515 50.421 175.235C51.165 176.296 53.165 180.087 54.866 183.658C56.567 187.229 59.058 191.501 60.402 193.151C62.563 195.803 62.927 195.944 63.544 194.364C63.949 193.328 63.645 191.857 62.822 190.864C62.04 189.922 60.523 187.351 59.45 185.151C58.378 182.951 57.249 180.926 56.943 180.651C56.191 179.976 54.305 174.801 53.541 171.317C52.58 166.934 54.626 168.982 57.679 175.459ZM64.103 175.973C67.049 183.257 74.433 191.841 90.816 207.03C93.117 209.164 95 211.302 95 211.78C95 215.063 86.415 208.784 79.008 200.083C75.528 195.995 72.303 192.651 71.841 192.651C70.497 192.651 70.867 194.296 72.518 195.666C73.354 196.359 74.704 198.332 75.519 200.049C76.334 201.767 78.126 204.385 79.5 205.868C84.026 210.748 82.105 210.179 76.954 205.113C71.065 199.323 68.519 194.935 70.007 193.143C70.707 192.299 70.365 191.113 68.872 189.216C66.242 185.872 61.124 176.163 59.942 172.277C59.102 169.514 59.141 169.468 60.943 171.099C61.974 172.032 63.396 174.226 64.103 175.973ZM75 173.515C75 174.541 76.343 176.903 77.984 178.765C79.625 180.628 80.975 182.698 80.984 183.366C80.993 184.034 81.9 185.062 83 185.651C84.561 186.487 85 186.411 85 185.309C85 184.532 84.342 183.35 83.539 182.683C82.735 182.016 81.772 180.507 81.398 179.33C80.553 176.667 76.904 171.651 75.812 171.651C75.365 171.651 75 172.49 75 173.515ZM250.162 175.401C249.568 176.913 248.783 179.951 248.419 182.151C248.055 184.351 246.847 187.659 245.734 189.502C243.895 192.549 243.871 192.821 245.46 192.502C246.515 192.29 247.784 190.367 248.66 187.651C249.459 185.176 250.386 182.476 250.72 181.651C251.054 180.826 251.366 179.851 251.414 179.484C251.461 179.118 251.837 178.48 252.25 178.068C253.296 177.022 253.192 172.651 252.121 172.651C251.638 172.651 250.756 173.889 250.162 175.401ZM268.174 177.901C267.093 180.239 265.619 184.123 264.9 186.533C264.181 188.944 263.117 191.419 262.537 192.033C261.956 192.648 260.984 194.951 260.378 197.151C259.771 199.351 258.918 202.051 258.481 203.151C258.045 204.251 259.065 203.456 260.748 201.384C262.456 199.281 264.348 195.304 265.028 192.384C265.699 189.506 267.033 186.251 267.992 185.151C269.505 183.417 271.678 173.651 270.551 173.651C270.325 173.651 269.255 175.563 268.174 177.901ZM86.5 176.651C86.84 177.201 87.316 177.651 87.559 177.651C87.802 177.651 88 177.201 88 176.651C88 176.101 87.523 175.651 86.941 175.651C86.359 175.651 86.16 176.101 86.5 176.651ZM258.941 179.901C258.316 182.239 257.457 184.601 257.033 185.151C256.608 185.701 255.749 187.743 255.123 189.688C254.497 191.633 251.964 196.771 249.494 201.106C247.024 205.441 245.216 209.201 245.477 209.462C246.231 210.215 249 207.544 249 206.064C249 205.325 249.819 204.283 250.82 203.747C251.821 203.212 253.207 200.834 253.9 198.462C254.593 196.091 256.252 192.054 257.587 189.492C259.871 185.106 261.98 175.651 260.674 175.651C260.346 175.651 259.566 177.563 258.941 179.901ZM34.899 182.682C37.389 187.459 37.435 187.755 35.57 187.039C34.783 186.738 33.658 185.11 33.07 183.422C30.968 177.393 31.938 177.001 34.899 182.682ZM97 179.529C97 180.011 97.749 181.024 98.664 181.779C100.172 183.023 100.216 182.941 99.129 180.901C97.889 178.574 97 178.001 97 179.529ZM237.49 186.238C235.483 190.411 234.091 194.075 234.396 194.381C235.482 195.466 238.008 192.356 239.157 188.52C239.799 186.379 240.926 184.127 241.662 183.517C243.181 182.256 243.483 178.651 242.07 178.651C241.558 178.651 239.497 182.065 237.49 186.238ZM228.173 183.409C225.937 188.028 225.755 188.651 226.643 188.645C227.572 188.638 231 183.071 231 181.57C231 179.735 229.469 180.731 228.173 183.409ZM31.505 189.48C30.428 190.557 28.953 187.936 29.636 186.158C30.272 184.501 30.417 184.545 31.19 186.636C31.659 187.904 31.801 189.184 31.505 189.48ZM52.915 192.455C54.021 194.555 54.576 197.208 54.886 201.866C54.949 202.81 56.35 205.119 58 206.998C59.65 208.877 61 210.733 61 211.123C61 211.512 62.012 212.691 63.25 213.743C65.28 215.468 65.305 215.588 63.5 214.972C62.4 214.597 60.721 213.359 59.769 212.22C58.816 211.082 57.47 209.491 56.776 208.683C54.209 205.697 52.14 200.833 52.633 198.947C52.912 197.879 52.255 195.462 51.173 193.578C50.091 191.693 48.878 189.026 48.479 187.651L47.752 185.151L49.727 187.651C50.813 189.026 52.248 191.188 52.915 192.455ZM87 189.092C87 190.793 87.52 191.139 91.5 192.094L94.5 192.814L92.076 190.232C89.407 187.391 87 186.85 87 189.092ZM48 196.214C48 196.625 47.1 196.146 46 195.151C44.9 194.156 44 192.675 44 191.861C44 190.909 44.713 191.288 46 192.924C47.1 194.322 48 195.803 48 196.214ZM99 191.651C99 192.201 99.927 192.651 101.059 192.651C102.191 192.651 102.84 192.201 102.5 191.651C102.16 191.101 101.234 190.651 100.441 190.651C99.648 190.651 99 191.101 99 191.651ZM201 191.71C201 192.292 201.45 192.491 202 192.151C202.55 191.811 203 191.335 203 191.092C203 190.849 202.55 190.651 202 190.651C201.45 190.651 201 191.128 201 191.71ZM41.901 196.208C44.801 201.123 44.643 203.58 41.659 199.978C39.201 197.011 37.616 192.651 38.995 192.651C39.439 192.651 40.747 194.252 41.901 196.208ZM96 195.322C96 196.599 99.838 200.146 100.502 199.482C100.772 199.213 99.869 197.937 98.496 196.647C97.123 195.358 96 194.761 96 195.322ZM123 198.651C123 199.201 122.523 199.651 121.941 199.651C121.359 199.651 121.16 199.201 121.5 198.651C121.84 198.101 122.316 197.651 122.559 197.651C122.802 197.651 123 198.101 123 198.651ZM231 201.151C230.477 202.526 229.685 203.651 229.24 203.651C228.795 203.651 227.608 205.044 226.603 206.747C224.775 209.841 224.775 209.842 226.902 208.704C228.741 207.719 234 200.657 234 199.171C234 197.577 231.809 199.023 231 201.151ZM240.429 202.08C239.37 202.854 238.851 203.835 239.275 204.26C239.7 204.684 240.798 204.282 241.714 203.365C243.876 201.204 242.926 200.254 240.429 202.08ZM104.813 202.334C105.534 202.623 106.397 202.587 106.729 202.255C107.061 201.923 106.471 201.687 105.417 201.73C104.252 201.778 104.015 202.015 104.813 202.334ZM219.59 203.552C217.724 205.614 218.777 207.058 221.41 206.047C223.039 205.422 223.678 201.651 222.155 201.651C221.69 201.651 220.536 202.506 219.59 203.552ZM168 203.557C168 204.056 168.9 204.228 170 203.941C171.1 203.653 172 203.245 172 203.034C172 202.824 171.1 202.651 170 202.651C168.9 202.651 168 203.059 168 203.557ZM152 207.71C152 208.292 152.45 208.491 153 208.151C153.55 207.811 154 207.335 154 207.092C154 206.849 153.55 206.651 153 206.651C152.45 206.651 152 207.128 152 207.71ZM192.352 207.644C190.053 208.572 188.476 210.46 189.307 211.291C189.935 211.92 195.645 209.034 196.496 207.658C197.24 206.453 195.32 206.447 192.352 207.644ZM175.324 209.45C173.578 209.624 171.61 210.416 170.952 211.209C169.943 212.424 170.386 212.651 173.771 212.651C176.573 212.651 177.977 212.155 178.417 211.008C179.18 209.019 179.258 209.058 175.324 209.45ZM200.694 211.183C199.151 212.54 197.109 213.651 196.156 213.651C193.852 213.651 186.889 219.554 189.128 219.61C190.023 219.633 191.373 218.907 192.128 217.997C192.882 217.087 196.313 215.081 199.75 213.539C203.188 211.997 206 210.266 206 209.693C206 207.93 203.638 208.593 200.694 211.183ZM232.685 212.462C228.971 216.265 228.232 217.651 229.916 217.651C231.028 217.651 237.42 209.738 236.806 209.123C236.566 208.884 234.712 210.386 232.685 212.462ZM183.441 213.119C182.374 213.927 180.375 214.605 179 214.626C177.625 214.647 175.15 215.603 173.5 216.751L170.5 218.837L174.086 218.334C176.058 218.057 178.244 218.183 178.943 218.616C180.365 219.495 180.17 219.665 174.039 222.894L170.5 224.757L175.427 224.199C181.609 223.499 184.105 221.427 183.345 217.627C182.878 215.293 183.26 214.57 185.643 213.279C187.277 212.394 187.833 211.714 186.941 211.691C186.084 211.669 184.509 212.312 183.441 213.119ZM206.194 215.111C203.427 217.015 200.001 218.864 198.582 219.22C196.076 219.849 195.409 220.726 196.56 221.878C197.285 222.602 205.738 217.944 210.11 214.412C214.946 210.505 212.17 211 206.194 215.111ZM156.442 213.557C156.75 214.055 157.902 214.228 159.001 213.94C161.753 213.221 161.505 212.651 158.441 212.651C157.034 212.651 156.134 213.059 156.442 213.557ZM217.032 215.59C216.302 216.955 216.32 217.731 217.093 218.209C217.698 218.582 218.002 220.185 217.769 221.769C217.2 225.649 219.532 225.585 223.894 221.601C227.576 218.238 227.39 216.696 223.516 218.462C222.145 219.086 220.36 219.343 219.549 219.032C218.265 218.539 218.278 218.157 219.653 216.058C221.09 213.865 221.089 213.651 219.65 213.651C218.781 213.651 217.603 214.524 217.032 215.59ZM96.885 217.789C98.197 218.813 99.772 219.665 100.385 219.683C100.998 219.7 102.761 220.823 104.302 222.179C106.498 224.112 106.891 225.022 106.122 226.397C105.412 227.666 105.578 228.633 106.726 229.9C108.56 231.927 107.043 232.28 103.846 230.569C102.435 229.813 101.987 228.832 102.364 227.319C102.809 225.528 101.836 224.455 96.763 221.151C90.244 216.904 87.873 213.848 92.132 215.184C93.434 215.592 95.573 216.764 96.885 217.789ZM71.25 231.351C70.563 231.608 70 232.68 70 233.734C70 235.884 68.793 236.146 65.934 234.616C63.443 233.283 63.447 231.651 65.941 231.651C69.39 231.651 68.992 230.094 64.449 225.819C62.002 223.516 60 221.241 60 220.764C60 220.287 59.325 219.336 58.5 218.651C57.675 217.966 57 216.922 57 216.331C57 215.74 60.488 218.773 64.75 223.071C69.377 227.736 71.996 231.073 71.25 231.351ZM71.25 221.192C73.313 223.109 75 224.897 75 225.164C75 227.211 65.101 220.987 65.038 218.901C64.971 216.71 67.387 217.6 71.25 221.192ZM52.493 219.64C52.843 220.206 52.442 220.374 51.552 220.033C49.82 219.368 49.503 218.651 50.941 218.651C51.459 218.651 52.157 219.096 52.493 219.64ZM83.432 223.152C86.905 226.243 88.149 226.837 90.626 226.588C90.971 226.553 91.762 227.546 92.384 228.795C93.007 230.043 94.604 231.321 95.934 231.635C97.94 232.109 100.259 234.651 98.685 234.651C97.705 234.651 86.487 228.468 85.019 227.119C84.184 226.351 81.925 224.369 80 222.716C77.882 220.897 77.092 219.698 78 219.681C78.825 219.665 81.269 221.227 83.432 223.152ZM158.926 222.062C160.556 224.026 158.727 224.97 154.912 224.132C152.089 223.512 152.002 223.367 153.687 222.089C156.025 220.317 157.471 220.309 158.926 222.062ZM237.532 228.599C237.033 229.406 233 230.767 233 230.129C233 229.945 233.711 229.083 234.581 228.213C236.122 226.672 238.529 226.987 237.532 228.599ZM160.5 229.606C158.622 230.372 158.654 230.462 161.024 231.088C162.411 231.454 164.661 231.309 166.024 230.766C167.625 230.127 167.91 229.755 166.832 229.714C165.914 229.68 164.564 229.457 163.832 229.221C163.099 228.984 161.6 229.158 160.5 229.606ZM185 230.651C185 231.201 185.9 231.651 187 231.651C188.1 231.651 189 231.201 189 230.651C189 230.101 188.1 229.651 187 229.651C185.9 229.651 185 230.101 185 230.651ZM88 233.151C89.292 234.526 90.867 235.651 91.5 235.651C92.133 235.651 93.708 236.776 95 238.151C96.292 239.526 98.144 240.651 99.115 240.651C100.087 240.651 101.16 241.101 101.5 241.651C102.493 243.258 98.369 242.8 97 241.151C96.315 240.326 94.936 239.651 93.934 239.651C92.933 239.651 91.514 238.796 90.782 237.75C90.05 236.705 88.388 235.692 87.09 235.5C85.791 235.308 84.06 234.139 83.243 232.901C81.874 230.829 81.91 230.651 83.704 230.651C84.775 230.651 86.708 231.776 88 233.151ZM231.183 232.868C230.466 233.585 230 233.644 230 233.018C230 232.449 230.3 231.684 230.667 231.318C231.033 230.951 231.566 230.884 231.85 231.168C232.134 231.452 231.834 232.217 231.183 232.868ZM165.559 238.183C162.939 240.165 157 240.143 157 238.151C157 237.004 158.236 236.658 162.25 236.683C167.084 236.712 167.346 236.831 165.559 238.183ZM200.815 239.401C200.607 240.496 199.375 241.277 197.523 241.489L194.562 241.826L197.031 239.772C200.081 237.234 201.247 237.12 200.815 239.401ZM115.5 240.651C115.16 241.201 114.459 241.651 113.941 241.651C113.423 241.651 113 241.201 113 240.651C113 240.101 113.702 239.651 114.559 239.651C115.416 239.651 115.84 240.101 115.5 240.651ZM191 242.682C191 243.88 188.179 245.164 187.357 244.341C186.481 243.465 187.966 241.651 189.559 241.651C190.352 241.651 191 242.115 191 242.682ZM84.5 245.651C84.84 246.201 84.443 246.651 83.618 246.651C82.793 246.651 81.84 246.201 81.5 245.651C81.16 245.101 81.557 244.651 82.382 244.651C83.207 244.651 84.16 245.101 84.5 245.651ZM183.571 245.536C182.603 247.102 173.877 247.938 172.629 246.584C171.785 245.667 171.798 245.525 172.681 246.021C173.33 246.385 174.144 246.226 174.49 245.667C174.835 245.108 177.143 244.651 179.618 244.651C182.093 244.651 183.872 245.049 183.571 245.536ZM101 247.734C101 250.171 98.663 249.827 98.177 247.318C97.985 246.331 98.495 245.651 99.427 245.651C100.354 245.651 101 246.506 101 247.734ZM185.971 250.69C184.29 251.753 176.309 252.009 177.352 250.966C178.137 250.181 186.26 248.859 186.971 249.401C187.23 249.598 186.78 250.178 185.971 250.69ZM201.559 250.183C199.448 251.779 195.945 252.273 197.55 250.748C198.339 249.998 200.529 249.215 203 248.799C203.275 248.752 202.626 249.375 201.559 250.183ZM212 251.066C212 251.937 202.66 256.651 200.933 256.651C199.935 256.651 198.84 257.101 198.5 257.651C198.16 258.201 196.874 258.651 195.641 258.651C194.408 258.651 192.972 259.065 192.45 259.571C191.109 260.869 181.561 261.362 181.21 260.151C181.051 259.601 181.951 259.033 183.21 258.888C186.871 258.467 197.381 255.391 198.776 254.331C199.479 253.798 202.629 252.798 205.776 252.109C208.924 251.42 211.613 250.81 211.75 250.753C211.887 250.697 212 250.838 212 251.066ZM194 252.786C192.625 253.341 191.05 253.875 190.5 253.973C189.95 254.071 189.25 254.486 188.944 254.896C188.638 255.306 185.488 255.854 181.944 256.115C178.4 256.375 176.4 256.351 177.5 256.061C178.6 255.771 180.175 255.249 181 254.901C182.809 254.137 192.896 251.934 195 251.843C195.825 251.807 195.375 252.232 194 252.786ZM102.591 256.394C101.897 257.087 100 255.678 100 254.47C100 253.806 100.574 253.882 101.524 254.671C102.362 255.367 102.842 256.142 102.591 256.394ZM116.075 260.976C114.791 262.26 113 260.878 113 258.602C113 256.77 113.103 256.758 114.988 258.373C116.168 259.383 116.61 260.441 116.075 260.976ZM123 261.651C123 262.201 122.325 262.651 121.5 262.651C120.675 262.651 120 262.201 120 261.651C120 261.101 120.675 260.651 121.5 260.651C122.325 260.651 123 261.101 123 261.651ZM195.559 262.183C194.491 262.99 193.168 263.651 192.618 263.651C192.068 263.651 192.491 262.99 193.559 262.183C194.626 261.375 195.95 260.715 196.5 260.715C197.05 260.715 196.626 261.375 195.559 262.183ZM119 265.151C119 265.976 118.352 266.651 117.559 266.651C115.888 266.651 114.761 265.224 115.694 264.29C116.889 263.095 119 263.645 119 265.151ZM125 266.151C125 266.976 124.55 267.651 124 267.651C123.45 267.651 123 266.976 123 266.151C123 265.326 123.45 264.651 124 264.651C124.55 264.651 125 265.326 125 266.151ZM111.464 267.593C111.784 268.111 115.196 268.845 119.045 269.224C122.895 269.603 126.286 270.305 126.581 270.782C126.876 271.26 128.456 271.651 130.091 271.651C134.601 271.651 140 274.239 140 276.401C140 279.155 142.319 283.634 143.75 283.643C145.706 283.655 145.219 285.384 142.777 287.094C141.555 287.95 141.132 288.651 141.837 288.651C142.541 288.651 142.84 289.101 142.5 289.651C141.566 291.162 140 290.849 140 289.151C140 288.218 139.056 287.651 137.5 287.651C134.509 287.651 134.348 289.261 137 292.651C139.448 295.781 139.46 296.523 137.1 299.087C135.422 300.91 135.318 301.794 136.206 306.651C136.759 309.676 137.614 312.932 138.106 313.887C139.307 316.221 139.237 318.651 137.969 318.651C137.401 318.651 136.661 317.931 136.323 317.051C135.447 314.766 131.016 310.523 130.098 311.09C129.673 311.353 129.778 314.062 130.33 317.109L131.334 322.651H135.132C139.445 322.651 141 324.517 141 329.692C141 332.175 140.656 332.733 139.418 332.258C138.548 331.924 137.142 331.651 136.293 331.651C135.137 331.651 134.89 330.95 135.309 328.854C136.036 325.223 134.605 322.646 132.842 324.409C131.291 325.96 127.768 326.019 126.267 324.518C124.646 322.897 122.133 324.171 120.982 327.198C119.834 330.219 117.101 330.191 115.513 327.142C114.942 326.047 113.633 323.899 112.602 322.37C111.572 320.84 110.903 319.466 111.115 319.317C111.327 319.168 112.703 318.294 114.173 317.375C116.628 315.842 116.753 315.458 115.704 312.678C114.378 309.165 112.475 308.728 111.683 311.756C110.798 315.138 108.469 313.391 108.731 309.542L108.961 306.151L105.11 310.509C101.269 314.856 101.253 314.863 98.63 313.144C97.183 312.196 96 310.642 96 309.691C96 307.025 99.222 304.635 101.879 305.33C103.588 305.776 104.847 305.217 106.747 303.168C109.187 300.537 109.646 300.429 116.349 300.908C123.777 301.44 129 300.312 129 298.176C129 297.472 129.648 296.358 130.441 295.7C131.871 294.513 131.593 292.318 129.704 289.878C128.915 288.86 128.247 288.914 126.359 290.152C123.828 291.809 123.585 291.462 123.98 286.758C124.159 284.621 123.869 284.427 121.275 284.946C117.577 285.686 110 290.608 110 292.27C110 292.964 109.502 293.841 108.893 294.217C108.119 294.696 108.002 293.917 108.505 291.626C109.111 288.867 108.972 288.448 107.62 288.967C106.737 289.305 105.449 288.907 104.757 288.082C101.671 284.399 100.786 283.665 100.011 284.144C99.556 284.425 100.042 286.433 101.092 288.605C102.141 290.777 103 293.19 103 293.968C103 296.495 98.949 300.651 96.486 300.651C93.103 300.651 92.454 298.861 94.895 296.263C97.499 293.491 97.51 292.595 95 287.912C91.616 281.598 92.271 278.302 98.145 272.091C102.616 267.363 103.787 266.651 107.086 266.651C109.174 266.651 111.144 267.075 111.464 267.593ZM151 279.273C151 280.031 150.658 280.651 150.241 280.651C149.131 280.651 147.013 276.971 147.717 276.267C148.572 275.412 151 277.635 151 279.273ZM126.63 282.798C125.12 283.675 125.024 284.052 126.13 284.753C128.694 286.377 130.853 285.805 130.29 283.651C129.696 281.379 129.251 281.276 126.63 282.798ZM149.43 291.538C150.083 292.595 147.217 295.201 146.352 294.337C145.519 293.503 146.724 290.651 147.91 290.651C148.444 290.651 149.129 291.05 149.43 291.538ZM154.903 298.034C155.829 299.15 155.467 299.502 153.027 299.86C150.155 300.282 150.087 300.213 151.657 298.478C153.635 296.292 153.475 296.314 154.903 298.034ZM163 301.151C163 301.976 162.823 302.651 162.607 302.651C162.391 302.651 161.955 301.976 161.638 301.151C161.322 300.326 161.499 299.651 162.031 299.651C162.564 299.651 163 300.326 163 301.151ZM89.352 304.383C87.335 305.858 86.386 304.692 87.418 302.005C87.924 300.685 88.283 300.641 89.602 301.736C91.03 302.921 91.006 303.173 89.352 304.383ZM146.575 312.976C147.474 315.675 146.287 316.221 144.006 314.157C142.807 313.071 142.009 311.096 142.022 309.246L142.044 306.151L144.006 308.651C145.084 310.026 146.24 311.972 146.575 312.976ZM143.782 320.677C143.838 322.649 143.439 323.631 142.685 323.379C142.033 323.162 141.545 322.459 141.6 321.818C141.655 321.176 141.767 319.724 141.85 318.592C142.08 315.438 143.682 317.168 143.782 320.677ZM149.457 329.582C149.774 330.094 149.634 330.759 149.148 331.06C148.661 331.361 147.973 333.417 147.62 335.629C147.266 337.841 146.532 339.651 145.988 339.651C144.682 339.651 144.739 337.253 146.158 332.517C147.303 328.695 148.339 327.773 149.457 329.582ZM150 342.044C150 342.81 149.325 343.696 148.5 344.013C146.996 344.59 146.382 342.602 147.667 341.318C148.788 340.196 150 340.574 150 342.044ZM163 353.78C163 354.493 161.762 356.089 160.25 357.327C158.222 358.988 157.931 359.589 159.143 359.615C161.287 359.662 162.257 362.302 160.996 364.658C160.448 365.682 160.022 367.112 160.05 367.835C160.077 368.559 161.43 366.451 163.057 363.151C164.683 359.851 165.898 356.286 165.757 355.229C165.468 353.066 163 351.769 163 353.78ZM190.189 356.393C190.373 357.352 191.75 358.723 193.248 359.441C194.746 360.159 197.89 362.985 200.236 365.721C205.043 371.329 210.179 375.116 214.25 376.055C219.645 377.299 217.069 374.707 209.88 371.657C208.439 371.046 205.602 368.138 203.574 365.195C198.533 357.874 189.306 351.807 190.189 356.393ZM145.683 357.839C145.364 358.636 145.127 358.399 145.079 357.234C145.036 356.18 145.272 355.59 145.604 355.922C145.936 356.254 145.972 357.117 145.683 357.839ZM148.217 363.834C146.689 365.362 145.562 364.235 146.409 362.027C146.909 360.723 147.343 360.594 148.233 361.484C149.122 362.373 149.119 362.932 148.217 363.834ZM184.742 365.243C184.033 365.951 186.237 371.651 187.219 371.651C187.649 371.651 188 372.347 188 373.198C188 374.048 189.347 375.511 190.994 376.448C192.64 377.384 193.99 378.661 193.994 379.284C193.997 379.908 195.012 380.695 196.25 381.034C197.998 381.513 198.193 381.849 197.122 382.539C196.364 383.028 196.066 383.95 196.461 384.588C197.004 385.467 197.52 385.464 198.589 384.577C199.671 383.679 200.35 383.696 201.5 384.651C203.706 386.482 203.327 384.379 201 381.881C199.9 380.701 199 379.035 199 378.179C199 377.324 198.583 375.842 198.073 374.887C197.563 373.932 196.858 372.251 196.506 371.151C195.911 369.294 195.795 369.276 194.883 370.901C193.334 373.659 191.246 372.973 188.139 368.685C186.559 366.503 185.03 364.954 184.742 365.243ZM166 386.651C166 387.201 165.298 387.651 164.441 387.651C163.584 387.651 163.16 387.201 163.5 386.651C163.84 386.101 164.541 385.651 165.059 385.651C165.577 385.651 166 386.101 166 386.651ZM213.5 393.753C208.968 395.145 207.071 397.015 206.392 400.759C205.792 404.072 205.816 404.1 207.394 401.974C208.283 400.777 210.889 398.19 213.185 396.224C215.481 394.259 217.166 392.692 216.93 392.741C216.693 392.791 215.15 393.246 213.5 393.753ZM179.765 397.1C179.307 399.497 179.357 399.518 182.166 398.065C184.729 396.74 185.1 396.748 185.634 398.141C186.263 399.779 181.643 407.651 180.053 407.651C179.548 407.651 178.87 406.815 178.545 405.794C178.127 404.477 177.269 404.068 175.592 404.389C173.475 404.793 173.189 404.429 172.853 400.902C172.547 397.695 172.771 397.04 174.058 397.376C174.928 397.604 176.226 397.084 176.942 396.221C178.883 393.882 180.296 394.322 179.765 397.1ZM204.96 407.151C204.809 408.801 204.617 414.876 204.533 420.651L204.381 431.151L207.114 428.401C209.371 426.129 210.719 425.651 214.864 425.651C217.624 425.651 220.16 425.201 220.5 424.651C220.84 424.101 220.217 423.651 219.116 423.651C216.329 423.651 210.479 420.03 208.578 417.13C207.706 415.798 206.596 412.333 206.113 409.43C205.433 405.349 205.172 404.832 204.96 407.151ZM119.726 428.651C120.521 431.126 121.127 434.359 121.074 435.835C121.022 437.312 121.433 438.801 121.989 439.144C123.294 439.951 123.302 444.346 122 445.151C121.45 445.491 120.948 446.755 120.885 447.96C120.728 450.957 119.046 443.461 118.347 436.651C118.037 433.626 117.157 429.634 116.392 427.779C114.644 423.544 114.651 423.436 116.641 423.828C117.578 424.012 118.902 426.081 119.726 428.651ZM124.171 426.306C125.177 427.216 126 428.754 126 429.723C126 430.692 126.418 431.634 126.929 431.818C128.424 432.354 128.708 457.343 127.235 458.816C126.556 459.495 126 461.386 126 463.018C126 464.649 125.666 465.65 125.257 465.241C124.848 464.832 124.668 459.983 124.858 454.465C125.197 444.591 123.476 429.061 121.837 427.201C119.56 424.616 121.487 423.877 124.171 426.306ZM130.015 428.46C130.036 430.942 132.491 435.186 133.755 434.927C134.489 434.776 134.846 438.208 134.846 445.427C134.845 455.564 133.564 463.651 131.958 463.651C131.56 463.651 130.974 464.644 130.656 465.857C130.339 467.071 129.761 467.745 129.371 467.356C128.982 466.967 129.155 465.636 129.757 464.399C132.018 459.746 131.724 452.206 128.423 430.245C127.88 426.631 127.99 425.527 128.843 426.054C129.479 426.447 130.007 427.53 130.015 428.46ZM200.58 434.841C199.736 436.045 199.217 437.201 199.426 437.41C200.14 438.125 204 435.172 204 433.91C204 431.954 202.273 432.423 200.58 434.841ZM116.393 450.233C117.617 453.422 117.062 458.651 115.5 458.651C114.367 458.651 114 457.429 114 453.651C114 448.764 115.182 447.076 116.393 450.233ZM216.015 451.401C216.042 452.708 217.404 454.18 220.75 456.517C224.907 459.421 225.219 457.193 221.195 453.338C218.507 450.763 215.983 449.819 216.015 451.401ZM200.583 456.244C196.404 459.88 191 460.955 191 458.151C191 456.333 190.819 456.321 187.352 457.901L184.609 459.15L187.554 459.66C191.414 460.329 191.363 462.867 187.465 464.151C185.795 464.701 183.348 466.163 182.026 467.401C180.704 468.639 179.278 469.651 178.857 469.651C178.436 469.651 176.966 470.776 175.591 472.151C174.019 473.723 171.961 474.651 170.045 474.651C167.104 474.651 163 477.564 163 479.651C163 481.504 166.667 480.67 169.594 478.152C173.056 475.175 174 475.031 174 477.482C174 480.072 169.856 481.97 165.35 481.444C162.263 481.083 161.177 481.427 159.774 483.211C158.816 484.429 156.991 485.687 155.719 486.007C152.564 486.798 147.53 485.329 147.406 483.58C147.35 482.794 147.236 480.014 147.152 477.401C147.065 474.669 146.527 472.651 145.886 472.651C145.149 472.651 144.975 474.088 145.37 476.901C145.698 479.238 146.231 484.294 146.555 488.134C146.878 491.975 147.616 495.688 148.194 496.384C150.203 498.806 151.27 497.704 150.741 493.754C150.246 490.064 150.378 489.825 153.234 489.254C157.809 488.339 158.19 488.477 157.458 490.783C156.837 492.739 157.058 492.865 160.141 492.31C161.988 491.977 165.419 491.409 167.764 491.048C170.95 490.557 171.774 490.084 171.023 489.179C169.695 487.579 175.75 481.976 182 479.02C182.825 478.63 184.772 477.262 186.327 475.981C187.886 474.696 190.577 473.616 192.327 473.572C194.072 473.529 194.938 473.266 194.25 472.989C191.816 472.006 192.93 469.651 195.829 469.651C198.12 469.651 198.644 469.223 198.579 467.401C198.522 465.783 199.148 465.059 200.804 464.824C202.106 464.64 203.492 463.487 203.992 462.172C205.097 459.266 205.564 458.985 212.144 457.262L217.5 455.86L214.5 454.679C212.239 453.789 211.045 453.78 209.654 454.643C208.214 455.536 207.445 455.463 206.154 454.313C204.674 452.992 204.089 453.195 200.583 456.244ZM267 454.183C267 455.026 266.061 456.063 264.912 456.488C262.957 457.211 263.077 457.478 266.804 460.705C274.564 467.425 276.054 468.533 278.264 469.226C279.494 469.611 281.571 470.763 282.881 471.785C284.19 472.808 286.942 474.097 288.996 474.65C292.165 475.503 292.99 476.336 294.448 480.153C296.282 484.955 296.926 485.339 299.968 483.439C301.036 482.772 302.202 482.519 302.56 482.877C303.449 483.767 303.442 499.166 302.549 504.401C301.676 509.519 300.106 509.79 296.756 505.398C294.667 502.659 289.752 493.302 289.535 491.651C289.499 491.376 289.186 490.701 288.84 490.151C288.494 489.601 287.487 486.704 286.604 483.714C283.999 474.9 278.686 471.294 273.788 475.015C271.737 476.573 265 486.198 265 487.57C265 488.102 264.045 489.207 262.877 490.025C261.709 490.843 260.239 492.556 259.609 493.831C258.98 495.107 257.46 496.595 256.232 497.138C255.005 497.681 254 498.546 254 499.059C254 499.573 253.253 500.819 252.339 501.828C250.407 503.963 251.264 505.507 253.398 503.736C254.193 503.076 257.827 501.035 261.473 499.2C267.904 495.965 271.008 495.638 272.795 498.009C274.413 500.156 277.149 508.604 276.964 510.879C276.862 512.129 276.828 515.289 276.889 517.901C276.975 521.597 277.365 522.651 278.645 522.651C280.063 522.651 280.206 521.763 279.685 516.185C279.353 512.628 279.469 509.479 279.943 509.186C280.416 508.894 283.143 510.228 286.002 512.153C290.114 514.92 292.186 515.651 295.912 515.651C303.152 515.651 304.866 513.499 304.853 504.426C304.847 500.425 305.289 495.126 305.836 492.651C306.383 490.176 306.512 486.351 306.124 484.151C305.454 480.362 305.243 480.165 302.124 480.416C299.641 480.616 298.153 480.001 296.076 477.916C294.561 476.395 290.28 472.676 286.563 469.651C282.846 466.626 277.296 461.564 274.23 458.401C268.441 452.43 267 451.589 267 454.183ZM161.109 455.651C161.152 459.098 162.488 462.289 163.323 460.938C163.69 460.344 163.335 458.349 162.534 456.504C161.218 453.474 161.081 453.392 161.109 455.651ZM121 459.351C121 462.833 120.708 463.759 119.875 462.926C119.184 462.235 119.008 460.421 119.42 458.226C120.346 453.289 121 453.754 121 459.351ZM153 458.098C153 459.197 157.713 466.168 159.406 467.573C160.733 468.674 161.338 468.708 162.292 467.738C163.239 466.775 162.973 466.078 161.06 464.516C159.719 463.42 158.132 461.544 157.535 460.346C156.561 458.392 153 456.626 153 458.098ZM115 463.151C115 463.976 114.55 464.651 114 464.651C113.45 464.651 113 463.976 113 463.151C113 462.326 113.45 461.651 114 461.651C114.55 461.651 115 462.326 115 463.151ZM145.252 467.151C145.263 469.351 145.468 470.133 145.707 468.889C145.946 467.645 145.937 465.845 145.687 464.889C145.437 463.933 145.241 464.951 145.252 467.151ZM70.083 476.7C68.908 482.176 68.63 493.522 69.607 496.069C69.967 497.007 71.391 497.651 73.107 497.651C75.827 497.651 76 497.406 76 493.557C76 490.305 75.589 489.356 74 488.941C72.234 488.479 72 487.577 72 481.234C72 476.981 72.489 473.562 73.2 472.851C74.133 471.918 74.041 471.651 72.783 471.651C71.65 471.651 70.842 473.163 70.083 476.7ZM277 482.592C277 483.66 276.55 484.811 276 485.151C275.45 485.491 275 486.219 275 486.769C275 487.319 275.5 487.46 276.112 487.082C277.505 486.221 278.965 488.43 278.985 491.432C279.001 493.907 276.915 495.216 274.457 494.273C273.219 493.798 273.136 493.266 274.038 491.58C275.49 488.867 274.507 487.905 272.256 489.838C268.427 493.128 267.777 492.807 270.711 489.076C272.408 486.917 274.098 484.138 274.466 482.901C275.286 480.142 277 479.933 277 482.592ZM287.754 491.901C288.993 494.238 290.004 497.134 290.003 498.336C290.001 499.538 290.463 501.739 291.029 503.227C292.029 505.857 291.996 505.892 289.855 504.471C288.643 503.666 287.124 501.465 286.479 499.579C285.014 495.3 283.968 487.651 284.847 487.651C285.208 487.651 286.516 489.564 287.754 491.901ZM63.75 490.223C63.338 490.642 63.029 492.597 63.063 494.568C63.123 497.929 63.187 497.999 64.106 495.698C65.19 492.985 64.932 489.023 63.75 490.223ZM161.75 497.34C159.612 497.899 159.423 499.651 161.5 499.651C162.325 499.651 163 499.227 163 498.708C163 498.19 164.912 497.594 167.25 497.383L171.5 497L167.5 496.942C165.3 496.909 162.713 497.089 161.75 497.34ZM183.514 506.47C182.666 507.319 180.01 504.444 180.664 503.386C181.057 502.75 181.823 503.056 182.642 504.177C183.378 505.182 183.77 506.214 183.514 506.47ZM191.171 507.306C193.009 508.969 193.707 512.651 192.185 512.651C191.737 512.651 190.619 511.076 189.701 509.151C187.878 505.327 188.341 504.745 191.171 507.306ZM262.278 510.901C261.746 511.589 261.03 512.939 260.687 513.901C260.282 515.035 259.017 515.651 257.09 515.651C253.655 515.651 252.127 517.239 254.758 518.074C257.254 518.866 262.976 517.066 264.474 515.018C265.734 513.295 265.416 509.651 264.006 509.651C263.587 509.651 262.81 510.214 262.278 510.901ZM173 512.544C173 513.035 173.739 513.72 174.641 514.067C176.014 514.594 176.076 514.447 175.019 513.174C173.579 511.439 173 511.258 173 512.544ZM177.5 516.651C177.84 517.201 178.316 517.651 178.559 517.651C178.802 517.651 179 517.201 179 516.651C179 516.101 178.523 515.651 177.941 515.651C177.359 515.651 177.16 516.101 177.5 516.651ZM255.078 530.651C257.126 534.589 259.95 541.429 260.552 543.91C260.92 545.428 261.612 546.912 262.09 547.207C262.568 547.502 262.448 548.735 261.824 549.947C261.2 551.159 260.392 552.796 260.028 553.584C259.664 554.372 258.503 555.497 257.448 556.084C256.394 556.671 254.936 557.939 254.209 558.901C252.563 561.079 246.17 561.247 243.441 559.183C242.374 558.375 239.735 557.7 237.579 557.683C235.41 557.665 232.858 556.928 231.869 556.033C228.389 552.883 217.58 553.413 201.555 557.518C199.386 558.074 197.136 558.232 196.555 557.87C195.975 557.509 194.488 557.344 193.25 557.503C192.012 557.663 191 557.312 191 556.723C191 556.133 191.788 555.644 192.75 555.636C195.3 555.614 200.956 553.483 205.315 550.901C207.405 549.664 209.469 548.651 209.904 548.651C212.288 548.651 225.599 540.875 230.785 536.452C232.591 534.912 234.509 533.651 235.046 533.651C235.583 533.651 237.929 532.778 240.261 531.71C247.332 528.473 253.708 528.017 255.078 530.651ZM211 543.176C211 543.79 207.068 545.358 203.206 546.284C199.693 547.126 201.162 545.561 205.298 544.055C208.943 542.728 211 542.411 211 543.176ZM153.246 548.454C152.05 551.569 156.876 555.175 159.171 552.88C159.781 552.27 159.561 551.355 158.564 550.358C157.704 549.498 157 548.387 157 547.889C157 546.396 153.853 546.869 153.246 548.454ZM46.724 555.785C44.859 556.829 44.318 561.651 46.066 561.651C47.88 561.651 50.736 559.781 51.345 558.194C52.125 556.161 48.981 554.522 46.724 555.785ZM262.771 558.463C263.33 560.142 260.103 561.154 258.691 559.742C257.792 558.843 257.866 558.347 259.008 557.626C260.782 556.506 262.225 556.827 262.771 558.463Z" fill="#0053A2" fill-opacity="0.1"/>
</svg>
